<svg width="500" height="500" viewBox="0 0 500 500" fill="none" xmlns="http://www.w3.org/2000/svg">
<path d="M250 50C360.457 50 450 139.543 450 250C450 338.311 392.763 413.251 313.363 439.753V278.272H334.852L356.829 232.853V232.818H313.363V218.188C313.363 210.801 315.115 205.072 318.618 201C322.122 196.833 328.325 194.75 337.227 194.75C340.825 194.75 344.329 195.081 347.738 195.744C351.242 196.407 354.178 197.117 356.545 197.875L367.34 152.421C363.552 151.285 357.776 150.005 350.011 148.585C342.34 147.165 333.865 146.454 324.585 146.454C310.854 146.454 298.59 149.058 287.795 154.267C277 159.475 268.477 167.288 262.227 177.704C256.071 188.121 252.993 201.237 252.993 217.051V232.818H222.17V278.272H252.993V449.977C251.997 449.991 250.999 450 250 450C139.543 450 50 360.457 50 250C50 139.543 139.543 50 250 50Z" fill="#DDA0DD"/>
</svg>
