<svg width="400" height="400" viewBox="0 0 400 400" fill="none" xmlns="http://www.w3.org/2000/svg">
<g clip-path="url(#clip0_2_2)">
<circle cx="200" cy="200" r="200" fill="#9370DB"/>
<path d="M274.585 95.4541C283.865 95.4541 292.34 96.1645 300.011 97.585C307.776 99.0054 313.552 100.285 317.34 101.421L306.545 146.875C304.178 146.117 301.242 145.407 297.738 144.744C294.329 144.081 290.825 143.75 287.227 143.75C278.325 143.75 272.122 145.833 268.618 150C265.115 154.072 263.363 159.801 263.363 167.188V181.818H306.829V181.853L284.852 227.272H263.363V389.792C243.426 396.85 224.639 399.669 202.993 399.97V227.272H172.17V181.818H202.993V166.051C202.993 150.237 206.071 137.121 212.227 126.704C218.477 116.288 227 108.475 237.795 103.267C248.59 98.0584 260.854 95.4541 274.585 95.4541Z" fill="#9370DB"/>
<path d="M274.585 95.4541C283.865 95.4541 292.34 96.1645 300.011 97.585C307.776 99.0054 313.552 100.285 317.34 101.421L306.545 146.875C304.178 146.117 301.242 145.407 297.738 144.744C294.329 144.081 290.825 143.75 287.227 143.75C278.325 143.75 272.122 145.833 268.618 150C265.115 154.072 263.363 159.801 263.363 167.188V181.818H306.829V181.853L284.852 227.272H263.363V389.792C243.426 396.85 224.639 399.669 202.993 399.97V227.272H172.17V181.818H202.993V166.051C202.993 150.237 206.071 137.121 212.227 126.704C218.477 116.288 227 108.475 237.795 103.267C248.59 98.0584 260.854 95.4541 274.585 95.4541Z" fill="#F5F5F5"/>
</g>
<defs>
<clipPath id="clip0_2_2">
<rect width="400" height="400" fill="white"/>
</clipPath>
</defs>
</svg>
