<svg width="350" height="80" viewBox="0 0 350 80" fill="none" xmlns="http://www.w3.org/2000/svg">
<path d="M25.8404 59.5C26.0404 57.2667 26.1404 54.6 26.1404 51.5V30.45C25.7071 30.45 24.9904 30.55 23.9904 30.75C22.9904 30.95 22.1071 31.15 21.3404 31.35L21.1404 31.05L22.2904 25H41.5904L40.0904 22.25L40.2904 22H46.6904L50.2404 35.05L46.1904 36.45L45.9404 36.05C45.0404 34.5833 44.0571 33.45 42.9904 32.65C41.9571 31.8167 40.7404 31.25 39.3404 30.95C37.9404 30.6167 36.2071 30.45 34.1404 30.45H33.3904V39.75H37.6904C37.7571 39.75 37.7904 39.7167 37.7904 39.65V37.3H42.7404L41.8404 48.7H37.7904V45.9C37.7904 45.8333 37.7571 45.8 37.6904 45.8H33.3904V54.55C34.0571 54.55 35.2571 54.45 36.9904 54.25C38.7238 54.0167 39.9238 53.8167 40.5904 53.65L40.7904 53.95L39.6404 60H25.8404V59.5ZM55.6975 59.5C55.8641 56.8333 55.9475 54.1667 55.9475 51.5V30.05C55.3808 30.05 54.2141 30.2667 52.4475 30.7L51.7475 30.85L51.5975 30.55L52.5975 25H57.1475C58.0141 25 58.9808 24.9667 60.0475 24.9C61.1475 24.8333 61.9808 24.75 62.5475 24.65L62.6475 24.95C62.6141 25.8833 62.5641 27.2 62.4975 28.9C62.4308 30.8667 62.3975 32.4 62.3975 33.5V54.55C62.7641 54.55 63.4141 54.45 64.3475 54.25C65.3141 54.0167 66.1641 53.8167 66.8975 53.65L67.0975 53.95L65.9975 60H55.6975V59.5ZM77.8467 60.55C75.18 60.55 73.1133 59.9167 71.6467 58.65C70.2133 57.35 69.4967 55.65 69.4967 53.55C69.4967 51.6833 70.03 50.1833 71.0967 49.05C72.1633 47.9167 73.5467 47.1 75.2467 46.6C76.98 46.0667 79.0967 45.7 81.5967 45.5C82.8967 45.4 83.9467 45.2667 84.7467 45.1C85.5467 44.9333 86.18 44.6833 86.6467 44.35C87.1133 44.0167 87.3467 43.5667 87.3467 43C87.3467 41.9667 86.9467 41.1667 86.1467 40.6C85.3467 40 84.2633 39.7 82.8967 39.7C81.8633 39.7 80.9133 39.9 80.0467 40.3C79.18 40.6667 78.4133 41.2167 77.7467 41.95C77.1133 42.65 76.6133 43.4667 76.2467 44.4L76.1467 44.6L71.3967 43.75L74.1967 32.95H79.9467L80.1967 33.2L79.1967 35.55C79.6633 35.3167 80.08 35.15 80.4467 35.05C80.9467 34.8833 81.48 34.75 82.0467 34.65C82.6467 34.55 83.3133 34.5 84.0467 34.5C86.8133 34.5 89.0133 35.3833 90.6467 37.15C92.28 38.9167 93.0967 41.3167 93.0967 44.35V54.95C93.53 54.95 94.6967 54.7333 96.5967 54.3C96.73 54.2667 96.8467 54.25 96.9467 54.25C97.0467 54.2167 97.1467 54.1833 97.2467 54.15L97.4467 54.45L96.4467 60H87.2467V59.5C87.28 59.2333 87.2967 58.95 87.2967 58.65C87.33 58.3167 87.3467 57.9833 87.3467 57.65C87.3467 57.45 87.3467 57.2667 87.3467 57.1C87.38 56.9 87.3967 56.7167 87.3967 56.55C86.3967 57.7833 85.0467 58.7667 83.3467 59.5C81.6467 60.2 79.8133 60.55 77.8467 60.55ZM79.6467 55.3C80.98 55.3 82.23 55 83.3967 54.4C84.5967 53.7667 85.5467 52.95 86.2467 51.95C86.9467 50.9167 87.2967 49.8167 87.2967 48.65V48.05C86.73 48.4167 85.9633 48.7333 84.9967 49C84.0633 49.2333 83.0967 49.4 82.0967 49.5C80.1633 49.6333 78.68 49.9333 77.6467 50.4C76.6133 50.8667 76.0967 51.65 76.0967 52.75C76.0967 53.5833 76.4133 54.2167 77.0467 54.65C77.68 55.0833 78.5467 55.3 79.6467 55.3ZM126.067 35.45C125.7 36.25 125.334 37.0333 124.967 37.8C124.6 38.5333 124.234 39.2833 123.867 40.05C123.134 41.55 122.267 43.4167 121.267 45.65L114.967 60H107.567L101.917 47.1C100.917 44.8 99.6503 42.0833 98.117 38.95C97.9503 38.65 97.367 37.4833 96.367 35.45V35H108.817L109.667 40.1L109.467 40.5C109 40.4 108.384 40.3 107.617 40.2C106.884 40.1 106.334 40.05 105.967 40.05L111.767 54.9L115.267 46.15C115.7 45.0833 116.184 43.7 116.717 42C116.817 41.6667 116.917 41.35 117.017 41.05C117.15 40.7167 117.267 40.3833 117.367 40.05C117 40.05 116.45 40.1 115.717 40.2C115.017 40.3 114.417 40.4 113.917 40.5L113.667 40.2L114.567 35H126.067V35.45ZM131.536 59.5C131.702 56.8333 131.786 54.1667 131.786 51.5V40.05C131.219 40.05 130.052 40.2667 128.286 40.7L127.586 40.85L127.436 40.55L128.436 35H132.986C133.852 35 134.819 34.9667 135.886 34.9C136.986 34.8333 137.819 34.75 138.386 34.65L138.486 34.95C138.319 37.35 138.236 40.2 138.236 43.5V54.95C138.602 54.95 139.702 54.75 141.536 54.35L142.386 54.15L142.536 54.45L141.536 60H131.536V59.5ZM138.836 22.75L134.336 32.15H133.836L129.336 22.75H138.836ZM161.585 61.85L162.785 59.1C162.585 59.2333 162.368 59.3667 162.135 59.5C161.902 59.6 161.652 59.7 161.385 59.8C160.852 60 160.252 60.1667 159.585 60.3C158.952 60.4333 158.285 60.5 157.585 60.5C155.252 60.5 153.118 59.9667 151.185 58.9C149.285 57.8333 147.785 56.3333 146.685 54.4C145.585 52.4667 145.035 50.2333 145.035 47.7C145.035 45.1333 145.602 42.85 146.735 40.85C147.902 38.85 149.485 37.3 151.485 36.2C153.485 35.0667 155.718 34.5 158.185 34.5C160.685 34.5 162.902 35.05 164.835 36.15C166.768 37.25 168.285 38.7833 169.385 40.75C170.485 42.6833 171.035 44.9 171.035 47.4C171.035 47.7667 171.018 48.1333 170.985 48.5C170.985 48.8667 170.952 49.2167 170.885 49.55H151.335C151.535 50.6833 151.935 51.6833 152.535 52.55C153.135 53.4167 153.918 54.1 154.885 54.6C155.852 55.0667 156.952 55.3 158.185 55.3C159.252 55.3 160.235 55.1167 161.135 54.75C162.035 54.35 162.785 53.85 163.385 53.25C164.018 52.65 164.485 52.0167 164.785 51.35L164.885 51.15L170.285 52.5L167.585 62.1H161.835L161.585 61.85ZM164.485 45.2C164.252 44.1 163.835 43.15 163.235 42.35C162.668 41.55 161.935 40.9333 161.035 40.5C160.135 40.0333 159.102 39.8 157.935 39.8C156.768 39.8 155.735 40.0333 154.835 40.5C153.935 40.9333 153.185 41.55 152.585 42.35C152.018 43.15 151.618 44.1 151.385 45.2H164.485ZM204.729 60.75C203.496 60.75 202.313 60.6167 201.179 60.35C200.046 60.1167 199.013 59.8 198.079 59.4C197.713 59.2333 197.363 59.0667 197.029 58.9C196.696 58.7333 196.396 58.5667 196.129 58.4L197.679 62L197.379 62.35H191.029L187.179 47.65L192.279 45.95L192.779 47.2C193.413 48.7 194.363 50.05 195.629 51.25C196.929 52.4167 198.363 53.3167 199.929 53.95C201.529 54.5833 203.146 54.9 204.779 54.9C206.513 54.9 207.896 54.6 208.929 54C209.996 53.3667 210.529 52.45 210.529 51.25C210.529 50.2833 210.179 49.5 209.479 48.9C208.779 48.3 207.863 47.8 206.729 47.4C205.629 46.9667 204.029 46.4833 201.929 45.95C201.796 45.8833 201.663 45.8333 201.529 45.8C201.396 45.7667 201.246 45.7333 201.079 45.7C198.679 45.0333 196.596 44.3167 194.829 43.55C193.096 42.7833 191.563 41.6333 190.229 40.1C188.896 38.5667 188.229 36.5833 188.229 34.15C188.229 31.95 188.796 30.1167 189.929 28.65C191.063 27.15 192.546 26.05 194.379 25.35C196.213 24.6167 198.196 24.25 200.329 24.25C200.996 24.25 201.629 24.3 202.229 24.4C202.863 24.4667 203.446 24.5667 203.979 24.7C204.546 24.8 205.079 24.9333 205.579 25.1C205.846 25.2 206.096 25.3 206.329 25.4C206.596 25.5 206.846 25.6 207.079 25.7L205.979 23.2L206.229 22.9H212.729L215.979 36.45L211.079 38.05L210.829 37.5C210.129 36 209.229 34.7167 208.129 33.65C207.063 32.55 205.879 31.7167 204.579 31.15C203.313 30.5833 202.046 30.3 200.779 30.3C199.313 30.3 198.113 30.6167 197.179 31.25C196.246 31.85 195.779 32.7333 195.779 33.9C195.779 34.8667 196.129 35.6667 196.829 36.3C197.529 36.9333 198.396 37.45 199.429 37.85C200.463 38.2167 201.896 38.65 203.729 39.15L204.529 39.35L205.029 39.5C207.796 40.2333 210.046 40.9667 211.779 41.7C213.513 42.4333 214.996 43.5333 216.229 45C217.496 46.4667 218.129 48.4167 218.129 50.85C218.129 53.0167 217.529 54.85 216.329 56.35C215.129 57.85 213.513 58.9667 211.479 59.7C209.479 60.4 207.229 60.75 204.729 60.75ZM235.865 61.8L236.865 59.2C236.732 59.3 236.582 59.4 236.415 59.5C236.248 59.6 236.082 59.6833 235.915 59.75C235.482 59.9833 235.015 60.1667 234.515 60.3C234.048 60.4333 233.498 60.5 232.865 60.5C230.532 60.5 228.698 59.8167 227.365 58.45C226.065 57.05 225.415 55.0667 225.415 52.5V40.1H223.565C223.232 40.1 222.682 40.1667 221.915 40.3C221.182 40.4333 220.515 40.5833 219.915 40.75L219.465 40.85L219.315 40.55L220.315 35L222.615 35.1C223.482 35.1667 224.198 35.0667 224.765 34.8C225.365 34.5333 225.815 34.1333 226.115 33.6C226.415 33.0667 226.565 32.4 226.565 31.6V29C227.532 29 228.465 28.9833 229.365 28.95C230.298 28.9167 231.132 28.8667 231.865 28.8V35H233.515C234.582 35 236.082 34.9333 238.015 34.8C239.982 34.6333 241.332 34.4833 242.065 34.35L242.265 34.65L241.265 40.1H231.865V44.75C231.865 45.8167 231.832 46.7833 231.765 47.65C231.732 48.4833 231.665 49.25 231.565 49.95C231.532 50.35 231.498 50.7167 231.465 51.05C231.465 51.35 231.465 51.65 231.465 51.95C231.465 52.9833 231.715 53.8 232.215 54.4C232.715 54.9667 233.398 55.25 234.265 55.25C234.865 55.25 235.448 55.0667 236.015 54.7C236.615 54.3 237.132 53.7833 237.565 53.15C238.032 52.5167 238.382 51.85 238.615 51.15L238.865 50.35L243.615 51.35L241.865 62H236.065L235.865 61.8ZM259.414 60.5C256.847 60.5 254.531 59.95 252.464 58.85C250.431 57.7167 248.831 56.1667 247.664 54.2C246.497 52.2 245.914 49.9667 245.914 47.5C245.914 45 246.497 42.7667 247.664 40.8C248.831 38.8333 250.431 37.3 252.464 36.2C254.497 35.0667 256.814 34.5 259.414 34.5C262.047 34.5 264.381 35.0667 266.414 36.2C268.447 37.3 270.031 38.8333 271.164 40.8C272.331 42.7667 272.914 45 272.914 47.5C272.914 49.9667 272.331 52.1833 271.164 54.15C269.997 56.1167 268.381 57.6667 266.314 58.8C264.281 59.9333 261.981 60.5 259.414 60.5ZM259.414 54.9C260.714 54.9 261.881 54.5833 262.914 53.95C263.981 53.3167 264.797 52.4333 265.364 51.3C265.964 50.1667 266.264 48.9 266.264 47.5C266.264 46.1 265.964 44.8333 265.364 43.7C264.797 42.5667 263.981 41.6833 262.914 41.05C261.881 40.4167 260.714 40.1 259.414 40.1C258.114 40.1 256.947 40.4167 255.914 41.05C254.881 41.6833 254.064 42.5667 253.464 43.7C252.864 44.8333 252.564 46.1 252.564 47.5C252.564 48.9 252.864 50.1667 253.464 51.3C254.064 52.4333 254.881 53.3167 255.914 53.95C256.947 54.5833 258.114 54.9 259.414 54.9ZM300.734 43.55L295.384 45.4C294.884 44.2333 294.367 43.3 293.834 42.6C293.3 41.8667 292.717 41.3333 292.084 41C291.45 40.6667 290.75 40.5 289.984 40.5C289.217 40.5 288.55 40.7 287.984 41.1C287.417 41.4667 286.984 42 286.684 42.7C286.384 43.4 286.234 44.2167 286.234 45.15V54.95C286.767 54.95 287.667 54.8667 288.934 54.7C290.2 54.5 291.234 54.3167 292.034 54.15L292.184 54.45L291.184 60H279.534V59.5C279.7 56.8333 279.784 54.1667 279.784 51.5V40.05C279.217 40.05 278.05 40.2667 276.284 40.7L275.584 40.85L275.434 40.55L276.434 35H280.134C280.934 35 281.884 34.9667 282.984 34.9C284.117 34.8333 284.95 34.75 285.484 34.65L285.584 34.95L285.534 35.75C285.5 36.0167 285.484 36.2833 285.484 36.55C285.484 36.8167 285.467 37.0833 285.434 37.35C285.9 36.5167 286.634 35.85 287.634 35.35C288.634 34.8167 289.584 34.55 290.484 34.55C290.817 34.55 291.134 34.5833 291.434 34.65C291.734 34.7167 292.017 34.8167 292.284 34.95C292.384 35.0167 292.484 35.0833 292.584 35.15C292.684 35.2167 292.784 35.3 292.884 35.4L291.984 33.2L292.234 32.95H298.034L300.734 43.55ZM318.665 61.85L319.865 59.1C319.665 59.2333 319.448 59.3667 319.215 59.5C318.982 59.6 318.732 59.7 318.465 59.8C317.932 60 317.332 60.1667 316.665 60.3C316.032 60.4333 315.365 60.5 314.665 60.5C312.332 60.5 310.198 59.9667 308.265 58.9C306.365 57.8333 304.865 56.3333 303.765 54.4C302.665 52.4667 302.115 50.2333 302.115 47.7C302.115 45.1333 302.682 42.85 303.815 40.85C304.982 38.85 306.565 37.3 308.565 36.2C310.565 35.0667 312.798 34.5 315.265 34.5C317.765 34.5 319.982 35.05 321.915 36.15C323.848 37.25 325.365 38.7833 326.465 40.75C327.565 42.6833 328.115 44.9 328.115 47.4C328.115 47.7667 328.098 48.1333 328.065 48.5C328.065 48.8667 328.032 49.2167 327.965 49.55H308.415C308.615 50.6833 309.015 51.6833 309.615 52.55C310.215 53.4167 310.998 54.1 311.965 54.6C312.932 55.0667 314.032 55.3 315.265 55.3C316.332 55.3 317.315 55.1167 318.215 54.75C319.115 54.35 319.865 53.85 320.465 53.25C321.098 52.65 321.565 52.0167 321.865 51.35L321.965 51.15L327.365 52.5L324.665 62.1H318.915L318.665 61.85ZM321.565 45.2C321.332 44.1 320.915 43.15 320.315 42.35C319.748 41.55 319.015 40.9333 318.115 40.5C317.215 40.0333 316.182 39.8 315.015 39.8C313.848 39.8 312.815 40.0333 311.915 40.5C311.015 40.9333 310.265 41.55 309.665 42.35C309.098 43.15 308.698 44.1 308.465 45.2H321.565Z" fill="#F5F5F5"/>
<path d="M25.4669 59.4666C25.7159 59.4889 25.9649 59.5111 26.2139 59.5334C26.5228 56.8622 26.6526 54.1799 26.715 51.5C26.7236 51.1173 26.7321 50.7347 26.7404 50.352C26.8853 43.718 26.9909 37.084 27.057 30.45L27.0661 29.5426L26.1404 29.5334C25.2362 29.5504 24.5492 29.6977 23.8067 29.8313C22.9045 30.0041 22.0027 30.194 21.0985 30.4228L22.1377 30.8185C22.0718 30.718 22.0058 30.6175 21.9398 30.5171L22.0843 31.2294C22.4814 29.2154 22.8748 27.2006 23.2646 25.1852L22.2904 25.9916C24.0613 25.9972 25.8322 26 27.6031 26C32.2656 26 36.928 25.9978 41.5904 25.9935L43.2649 25.9921L42.4626 24.5242C41.9618 23.608 41.4608 22.6919 40.9598 21.7758L40.8637 22.8686C40.9303 22.7852 40.9969 22.7018 41.0634 22.6184L40.2904 22.9899C42.4238 22.9875 44.5571 22.9845 46.6904 22.9812L45.7437 22.2575C46.9339 26.6057 48.126 30.9533 49.3201 35.3003L49.9288 34.1486C48.58 34.6186 47.2312 35.0888 45.8825 35.5592L46.9897 35.9505C46.906 35.8174 46.8223 35.6843 46.7386 35.5512C45.9083 34.2114 44.8922 32.9155 43.5472 31.9077L43.5729 31.9277C42.397 30.9779 40.9741 30.3549 39.5321 30.0555L39.5523 30.0601C37.7323 29.6416 35.9255 29.5526 34.1404 29.5537C33.8904 29.5546 33.6404 29.5556 33.3904 29.5565L32.4936 29.5599L32.4969 30.45C32.5086 33.55 32.5212 36.65 32.5348 39.75L32.5385 40.6094L33.3904 40.6057C34.8238 40.5994 36.2571 40.5929 37.6904 40.5863C37.8172 40.5831 38.0881 40.5747 38.3565 40.3161C38.6149 40.0475 38.623 39.7766 38.6259 39.65C38.6223 38.8667 38.6186 38.0833 38.6148 37.3L37.7904 38.1243C39.4404 38.1164 41.0904 38.1082 42.7404 38.0996L41.9433 37.2371C41.6628 41.0386 41.3839 44.8403 41.1063 48.642L41.8404 47.9636C40.4904 47.9716 39.1404 47.9798 37.7904 47.9881L38.5023 48.7C38.4966 47.7667 38.4907 46.8333 38.4848 45.9C38.4821 45.7902 38.4741 45.5604 38.256 45.3344C38.0298 45.1166 37.8001 45.109 37.6904 45.1067C36.2571 45.1158 34.8238 45.1252 33.3904 45.1347L32.7207 45.1392L32.7251 45.8C32.7446 48.7167 32.7648 51.6333 32.786 54.55L32.7904 55.1588L33.3904 55.1545C34.6694 55.1226 35.8486 54.966 37.0567 54.8241L37.0675 54.8227C38.2821 54.6439 39.4775 54.4833 40.7239 54.1837L40.1327 53.9552C40.2001 54.0546 40.2676 54.1541 40.335 54.2536L40.2527 53.8478C39.885 55.8674 39.5177 57.8871 39.1508 59.9069L39.6404 59.5016C37.9258 59.5156 36.2112 59.5299 34.4966 59.5444C31.6112 59.569 28.7258 59.5943 25.8404 59.6205L26.22 60C26.2185 59.8333 26.2169 59.6667 26.2154 59.5C25.9654 59.5 25.7154 59.5 25.4654 59.5C25.4639 59.6667 25.4624 59.8333 25.4609 60L25.4575 60.3761L25.8404 60.3795C28.7258 60.4057 31.6112 60.431 34.4966 60.4556C36.2112 60.4701 37.9258 60.4844 39.6404 60.4984L40.0489 60.5017L40.13 60.0931C40.5298 58.0795 40.9292 56.0659 41.3281 54.0522L41.3708 53.837L41.2458 53.6464C41.1799 53.5459 41.1141 53.4454 41.0482 53.3448L40.8379 53.0242L40.457 53.1163C39.3328 53.3693 38.109 53.5207 36.9133 53.6773L36.9242 53.6759C35.7381 53.7988 34.5201 53.9351 33.3904 53.9455L33.9949 54.55C34.016 51.6333 34.0363 48.7167 34.0557 45.8L33.3904 46.4653C34.8238 46.4748 36.2571 46.4842 37.6904 46.4933C37.6343 46.4909 37.4622 46.4943 37.2748 46.3156C37.0958 46.1285 37.0988 45.9563 37.0961 45.9C37.0901 46.8333 37.0843 47.7667 37.0785 48.7L37.0742 49.4075L37.7904 49.4119C39.1404 49.4202 40.4904 49.4284 41.8404 49.4364L42.5166 49.4404L42.5745 48.758C42.897 44.9597 43.218 41.1614 43.5376 37.3629L43.6098 36.5048L42.7404 36.5003C41.0904 36.4918 39.4404 36.4836 37.7904 36.4757L36.9701 36.4717L36.9661 37.3C36.9623 38.0833 36.9586 38.8667 36.9549 39.65C36.9579 39.5768 36.955 39.3636 37.1744 39.1339C37.4039 38.9144 37.6172 38.917 37.6904 38.9137C36.2571 38.9071 34.8238 38.9006 33.3904 38.8943L34.2461 39.75C34.2597 36.65 34.2723 33.55 34.2839 30.45L33.3904 31.3435C33.6404 31.3444 33.8904 31.3454 34.1404 31.3463C35.8412 31.3558 37.5461 31.4625 39.1285 31.8399L39.1488 31.8445C40.3553 32.1052 41.4767 32.6123 42.4079 33.3723L42.4337 33.3923C43.5071 34.2042 44.3944 35.3231 45.1382 36.5423C45.2252 36.6824 45.3082 36.816 45.3912 36.9495L45.7858 37.5849L46.4984 37.3408C47.8497 36.8779 49.2009 36.4147 50.552 35.9514L51.3933 35.6629L51.1607 34.7996C49.9882 30.4467 48.8137 26.0943 47.6372 21.7424L47.4419 21.02L46.6904 21.0188C44.5571 21.0155 42.4238 21.0125 40.2904 21.0101L39.8158 21.0095L39.5174 21.3816C39.4507 21.4649 39.3839 21.5481 39.3171 21.6314L38.9057 22.1445L39.2211 22.7242C39.72 23.6414 40.2191 24.5586 40.7182 25.4757L41.5904 24.0065C36.928 24.0022 32.2656 24 27.6031 24C25.8322 24 24.0613 24.0028 22.2904 24.0084L21.4664 24.011L21.3163 24.8148C20.9393 26.8327 20.5661 28.8513 20.1966 30.8706L20.1247 31.2632L20.341 31.5829C20.4084 31.6825 20.4757 31.782 20.5431 31.8815L20.9296 32.4524L21.5823 32.2772C22.4313 32.0496 23.2998 31.8518 24.1742 31.6687C24.8527 31.5288 25.5943 31.3838 26.1404 31.3666L25.2238 30.45C25.29 37.084 25.3955 43.718 25.5404 50.352C25.5488 50.7347 25.5573 51.1173 25.5659 51.5C25.6238 54.1586 25.6274 56.8188 25.4669 59.4666ZM26.2139 59.5334L25.4669 59.4666L25.4654 59.5H26.2154L26.2139 59.5334ZM55.3232 59.4766C55.5727 59.4922 55.8222 59.5078 56.0717 59.5234C56.2607 57.8353 56.4082 56.1412 56.5138 54.4436C56.5747 53.4634 56.6217 52.4821 56.6546 51.5C56.8498 45.7099 56.9475 39.9197 56.9475 34.1296C56.9475 32.7697 56.9469 31.4099 56.9457 30.05L56.9448 29.0509L55.9475 29.0518C54.459 29.1372 53.4122 29.4588 52.2107 29.7349L52.2393 29.7284C52.006 29.7787 51.7728 29.8291 51.5395 29.8796L52.6351 30.4062C52.585 30.3062 52.5348 30.2063 52.4846 30.1064L52.5736 30.7259C52.9035 28.8753 53.2322 27.0244 53.5598 25.1734L52.5975 25.9778C54.1141 25.9731 55.6308 25.9677 57.1475 25.9615C58.1421 25.9572 59.1267 25.9125 60.1066 25.847C60.9591 25.788 61.7994 25.7293 62.7102 25.5721L61.6592 24.9461C61.6931 25.0459 61.7269 25.1457 61.7608 25.2456L61.7134 24.9166C61.6732 26.2314 61.6296 27.5471 61.5862 28.8643C61.5446 30.4084 61.508 31.9438 61.5161 33.5C61.5663 40.5167 61.6325 47.5333 61.7145 54.55L61.7226 55.2408L62.3975 55.2329C63.2108 55.1968 63.8183 55.0371 64.4856 54.8948L64.5022 54.891C65.3468 54.6763 66.1915 54.4648 67.0364 54.2613L66.3758 53.9977C66.4438 54.0969 66.5117 54.1961 66.5797 54.2952L66.4852 53.8387C66.1443 55.86 65.8047 57.8816 65.4664 59.9034L65.9975 59.4602C64.0892 59.4871 62.1809 59.5152 60.2726 59.5444C58.7475 59.5678 57.2225 59.5919 55.6975 59.6168L56.0806 60C56.0779 59.8333 56.0752 59.6667 56.0725 59.5C55.8225 59.5 55.5725 59.5 55.3225 59.5C55.3197 59.6667 55.317 59.8333 55.3143 60L55.3081 60.3768L55.6975 60.3832C57.2225 60.4081 58.7475 60.4322 60.2726 60.4556C62.1809 60.4848 64.0892 60.5129 65.9975 60.5398L66.4402 60.546L66.5285 60.0966C66.9236 58.0851 67.3173 56.0733 67.7097 54.0613L67.7563 53.8224L67.6153 53.6048C67.5499 53.5039 67.4845 53.4031 67.4191 53.3023L67.1885 52.9467L66.7585 53.0387C65.9005 53.2225 65.0461 53.414 64.1927 53.609L64.2093 53.6052C63.5881 53.7275 62.9019 53.8613 62.3975 53.8671L63.0804 54.55C63.1625 47.5333 63.2286 40.5167 63.2788 33.5C63.2924 31.9884 63.3488 30.4589 63.4089 28.9309C63.4684 27.6181 63.5271 26.3026 63.5815 24.9834L63.5341 24.6544C63.5013 24.5543 63.4685 24.4541 63.4357 24.3539L63.1858 23.5909L62.3847 23.7279C61.6426 23.8494 60.8082 23.9054 59.9901 23.9529C59.037 24.0077 58.0875 24.0421 57.1475 24.0385C55.6308 24.0323 54.1141 24.0269 52.5975 24.0222L51.7831 24.0196L51.6351 24.8266C51.2961 26.6756 50.9581 28.5247 50.6213 30.3741L50.5626 30.6967L50.7103 30.9936C50.7601 31.0937 50.81 31.1937 50.8598 31.2938L51.2016 31.9805L51.9554 31.8204C52.1888 31.7709 52.4223 31.7213 52.6557 31.6716L52.6842 31.6651C53.7954 31.401 55.0583 31.091 55.9475 31.0482L54.9493 30.05C54.9481 31.4099 54.9475 32.7697 54.9475 34.1296C54.9475 39.9197 55.0451 45.7099 55.2403 51.5C55.2733 52.4713 55.2979 53.4434 55.3141 54.4161C55.3422 56.101 55.3452 57.7879 55.3232 59.4766ZM56.0717 59.5234L55.3232 59.4766L55.3225 59.5H56.0725L56.0717 59.5234ZM77.8467 60.925C77.8467 60.675 77.8467 60.425 77.8467 60.175C75.7035 60.1016 73.5166 59.5842 72.0323 58.2035L72.043 58.213C71.9661 58.1387 71.8915 58.063 71.8191 57.9859C70.6825 56.8006 70.1794 55.1939 70.2357 53.55C70.2639 52.0397 70.7209 50.6106 71.7085 49.6258C72.7272 48.5798 74.0586 47.8787 75.5052 47.4791L75.5162 47.4758C77.4826 46.9057 79.5749 46.6338 81.6748 46.4765C82.7512 46.3977 83.8296 46.2985 84.9496 46.0741C85.6951 45.9156 86.4759 45.6891 87.2276 45.1633C87.6515 44.87 88.0644 44.3738 88.2304 43.8034C88.314 43.5306 88.3468 43.2561 88.3467 43C88.3974 41.8459 87.7498 40.4449 86.7243 39.7845L86.7463 39.8005C85.5572 38.9155 84.1458 38.7047 82.8967 38.7026C81.7982 38.7005 80.6588 38.9173 79.6299 39.3969L79.6591 39.384C78.6445 39.8107 77.7338 40.4841 77.0134 41.2834C76.2799 42.0935 75.7156 43.045 75.3286 44.0393L75.3644 43.9589C75.3312 44.0256 75.298 44.0923 75.2648 44.159L76.3204 43.6294C74.7365 43.3489 73.1526 43.0688 71.5686 42.7892L72.3415 43.995C73.2664 40.3928 74.189 36.79 75.1094 33.1866L74.1967 33.8928C76.1133 33.8859 78.03 33.8784 79.9467 33.8702L79.296 33.6007C79.3797 33.6836 79.4634 33.7666 79.5471 33.8496L79.3514 32.8403C79.0214 33.6251 78.6916 34.4099 78.3618 35.1947L77.4008 37.4694L79.6024 36.3615C79.9693 36.1759 80.3412 36.0151 80.6837 35.9192L80.7316 35.9047C81.2052 35.7441 81.6981 35.621 82.2019 35.5294C82.7894 35.4284 83.4143 35.3864 84.0467 35.3828C86.3241 35.3478 88.5341 36.0828 90.0286 37.7215C91.6534 39.4243 92.3008 41.8839 92.3052 44.35C92.3296 47.8833 92.3561 51.4167 92.3848 54.95L92.3906 55.6676L93.0967 55.6619C94.5172 55.5396 95.555 55.2295 96.7484 54.9652L96.7622 54.9619C96.8422 54.9404 96.9165 54.9296 96.9467 54.9293L97.1615 54.8944C97.2612 54.8602 97.3609 54.826 97.4606 54.7918L96.6838 54.5253C96.7513 54.6247 96.8188 54.7241 96.8863 54.8236L96.7839 54.3306C96.4666 56.1835 96.1498 58.0364 95.8336 59.8895L96.4467 59.3771C93.38 59.4056 90.3133 59.4356 87.2467 59.4673L87.7794 60C87.7776 59.8333 87.7759 59.6667 87.7742 59.5L87.7701 59.5654C87.8055 59.2577 87.8182 58.9522 87.8153 58.65L87.8127 58.7016C87.8442 58.3521 87.8583 58.0009 87.8547 57.65C87.8528 57.4666 87.8508 57.2833 87.8489 57.1L87.842 57.1826C87.8736 56.9801 87.8947 56.7708 87.893 56.55L87.885 55.1472L87.0112 56.2374C86.2848 57.1569 85.3567 57.9166 84.3233 58.5114C83.9518 58.7257 83.5669 58.9198 83.1722 59.0955C81.5065 59.8075 79.6821 60.1553 77.8467 60.175C77.8467 60.425 77.8467 60.675 77.8467 60.925C79.7662 60.9506 81.7121 60.6302 83.5144 59.9073C83.9457 59.7269 84.3631 59.5283 84.7694 59.3058C85.8992 58.689 86.9466 57.8748 87.7822 56.8626L86.9004 56.55C86.8984 56.6979 86.8802 56.8564 86.8513 57.0174L86.8445 57.1C86.8425 57.2833 86.8406 57.4666 86.8386 57.65C86.8351 57.9669 86.8157 58.2835 86.7807 58.5984L86.7781 58.65C86.7751 58.9158 86.7582 59.1786 86.7233 59.4346L86.7192 59.5C86.7175 59.6667 86.7157 59.8333 86.714 60L86.7086 60.5271L87.2467 60.5327C90.3133 60.5644 93.38 60.5944 96.4467 60.6229L96.9616 60.6277L97.0597 60.1105C97.4102 58.2636 97.7601 56.4165 98.1094 54.5694L98.1588 54.3084L98.007 54.0764C97.9412 53.9759 97.8754 53.8753 97.8096 53.7747L97.5299 53.3472L97.0327 53.5082C96.9325 53.5407 96.8322 53.5731 96.7319 53.6056L96.9467 53.5707C96.7403 53.5711 96.5803 53.6028 96.4312 53.6381L96.445 53.6348C95.3179 53.8736 94.0457 54.1718 93.0967 54.2381L93.8086 54.95C93.8373 51.4167 93.8638 47.8833 93.8882 44.35C93.924 41.6629 93.2423 38.7048 91.2648 36.5785C89.466 34.5346 86.6328 33.5864 84.0467 33.6172C83.3408 33.6142 82.6248 33.6523 81.8999 33.7692C81.3116 33.8702 80.7323 34.0079 80.1618 34.1953L80.2096 34.1808C79.6847 34.3238 79.2283 34.5237 78.7909 34.7385L80.0315 35.9053C80.3685 35.1235 80.7053 34.3416 81.042 33.5597L81.2857 32.9937L80.8463 32.5504C80.7633 32.4667 80.6803 32.383 80.5973 32.2993L80.3318 32.0315L79.9467 32.0298C78.03 32.0216 76.1133 32.0141 74.1967 32.0071L73.4705 32.0045L73.284 32.7134C72.3377 36.31 71.3936 39.9072 70.4519 43.505L70.1856 44.5223L71.2247 44.7108C72.8074 44.9978 74.3902 45.2844 75.973 45.5706L76.6969 45.7015L77.0286 45.041C77.062 44.9744 77.0955 44.9077 77.129 44.8411L77.1648 44.7607C77.4794 43.9625 77.9187 43.2337 78.4816 42.6149C79.0353 42.0062 79.6936 41.5268 80.4342 41.216L80.4635 41.2031C81.212 40.8574 82.0396 40.6955 82.8967 40.6974C83.9166 40.6954 84.8868 40.8968 85.5471 41.3995L85.569 41.4155C86.1095 41.8011 86.3435 42.2873 86.3467 43C86.3467 43.0894 86.3354 43.1611 86.3178 43.2188C86.2805 43.3337 86.2224 43.4216 86.0658 43.5367C85.6927 43.8058 85.1349 44.0016 84.5438 44.1259C83.588 44.325 82.5532 44.4354 81.5215 44.5233C79.3319 44.7172 77.1331 45.0389 74.9772 45.7242L74.9881 45.7209C73.3189 46.227 71.6928 47.1362 70.4849 48.4742C69.1851 49.8658 68.7017 51.8154 68.7577 53.55C68.7677 55.4713 69.5245 57.5098 70.9701 58.8339C71.0614 58.9206 71.1548 59.0049 71.2503 59.087L71.2611 59.0965C73.1605 60.6496 75.6175 61.0027 77.8467 60.925ZM77.8467 60.175V60.925V60.175ZM79.6467 54.3C79.6467 54.9667 79.6467 55.6333 79.6467 56.3C80.1982 56.3001 80.7541 56.2534 81.3027 56.1551C82.1907 55.9971 83.057 55.7002 83.854 55.2893L83.8634 55.2844C85.0937 54.6398 86.2412 53.71 87.0659 52.5235L87.0746 52.5108C87.8306 51.4139 88.3083 50.0286 88.2967 48.65C88.2967 48.45 88.2967 48.25 88.2967 48.05V46.2119L86.7534 47.2104C86.2027 47.5651 85.4754 47.83 84.7308 48.036L84.7541 48.0299C83.8516 48.2556 82.9292 48.4118 81.9972 48.505L82.0279 48.5024C80.4573 48.6265 78.8673 48.786 77.2351 49.4886C76.0556 49.9089 74.9912 51.453 75.0967 52.75C75.0501 53.696 75.5896 54.9255 76.482 55.4753C76.9417 55.7899 77.443 55.9862 77.9293 56.1077C78.518 56.2538 79.0918 56.2992 79.6467 56.3C79.6467 55.6333 79.6467 54.9667 79.6467 54.3C79.2103 54.3001 78.7884 54.261 78.4143 54.1674C78.104 54.0901 77.8306 53.9751 77.6114 53.8247C77.244 53.5646 77.1054 53.2808 77.0967 52.75C77.1075 52.0192 77.3666 51.6371 78.0583 51.3114C79.2269 50.7972 80.7132 50.6028 82.1655 50.4976L82.1962 50.495C83.218 50.3929 84.2368 50.2208 85.2392 49.9701L85.2626 49.964C86.1181 49.7225 86.9841 49.4331 87.8399 48.8896L86.2967 48.05C86.2967 48.25 86.2967 48.45 86.2967 48.65C86.3004 49.6218 85.9877 50.5549 85.4188 51.3892L85.4274 51.3765C84.8045 52.2709 83.9367 52.9865 82.9299 53.5156L82.9393 53.5107C82.3104 53.8346 81.642 54.063 80.9503 54.1864C80.5229 54.263 80.0867 54.3 79.6467 54.3ZM79.6467 56.3V54.3V56.3ZM126.408 35.6062C126.181 35.5021 125.953 35.3979 125.726 35.2938C125.338 36.065 124.945 36.8335 124.546 37.5987C124.15 38.328 123.758 39.0689 123.373 39.8135C123.106 40.3176 122.842 40.8288 122.582 41.3409C121.906 42.6715 121.252 44.0113 120.61 45.3557C118.39 50.0923 116.213 54.8418 114.076 59.609L114.967 59.0274C112.59 59.0091 110.213 59 107.836 59C107.747 59 107.657 59 107.567 59L108.483 59.5988C106.6 55.2989 104.712 51.0005 102.822 46.7038C101.611 43.9379 100.314 41.2227 98.9859 38.5248L98.9627 38.4802C98.3934 37.3994 97.8006 36.1848 97.2245 35.0283L97.3226 35.45C97.3221 35.3 97.3216 35.15 97.3211 35L96.367 35.9541C100.517 35.9403 104.667 35.9235 108.817 35.9036L107.926 35.1485C108.217 36.8472 108.509 38.5457 108.802 40.2442L108.882 39.7077C108.817 39.8414 108.751 39.9751 108.685 40.1088L109.65 39.6447C108.992 39.5094 108.362 39.4231 107.729 39.343C107.166 39.2728 106.618 39.2002 105.967 39.1954L104.711 39.2025L105.171 40.3609C107.133 45.2995 109.101 50.2363 111.073 55.1712L111.768 56.9276L112.459 55.1768C113.603 52.2511 114.745 49.3246 115.886 46.3975C116.433 45.0054 116.884 43.5988 117.314 42.1874C117.408 41.8662 117.502 41.5542 117.602 41.245L117.589 41.279C117.724 40.9335 117.844 40.5816 117.948 40.2242L118.176 39.436L117.367 39.4436C116.744 39.4564 116.198 39.5363 115.637 39.6153C115.025 39.7091 114.417 39.8111 113.805 39.9392L114.356 40.1339C114.272 40.0347 114.188 39.9356 114.103 39.8364L114.227 40.2968C114.509 38.5605 114.791 36.824 115.072 35.0874L114.567 35.5126C116.279 35.4941 117.99 35.4751 119.702 35.4556C121.823 35.4313 123.945 35.4063 126.067 35.3805L125.687 35C125.688 35.15 125.69 35.3 125.692 35.45C125.942 35.45 126.192 35.45 126.442 35.45C126.444 35.3 126.446 35.15 126.447 35L126.452 34.6242L126.067 34.6195C123.945 34.5937 121.823 34.5687 119.702 34.5444C117.99 34.5249 116.279 34.5059 114.567 34.4874L114.141 34.4828L114.062 34.9126C113.743 36.6427 113.425 38.3729 113.107 40.1031L113.061 40.3557L113.231 40.5636C113.313 40.6644 113.395 40.7652 113.478 40.8661L113.689 41.1252L114.029 41.0608C114.61 40.9513 115.204 40.8636 115.8 40.7842C116.332 40.7188 116.884 40.6554 117.367 40.6564L116.786 39.8758C116.687 40.1951 116.572 40.5104 116.444 40.821L116.432 40.855C116.322 41.1759 116.217 41.4976 116.117 41.8201C115.669 43.1969 115.198 44.5766 114.649 45.8991C113.455 48.8087 112.264 51.7156 111.075 54.6232L112.461 54.6288C110.567 49.6637 108.667 44.7005 106.763 39.7391L105.967 40.9046C106.421 40.9116 106.973 40.9823 107.5 41.0563C108.111 41.1403 108.719 41.2322 109.284 41.3553L109.941 41.4998L110.249 40.8912C110.317 40.7582 110.384 40.6252 110.452 40.4923L110.578 40.2421L110.532 39.9558C110.258 38.2543 109.983 36.5528 109.708 34.8515L109.587 34.1001L108.817 34.0964C104.667 34.0765 100.517 34.0597 96.367 34.0459L95.4161 34.0428L95.4129 35C95.4124 35.15 95.4119 35.3 95.4114 35.45L95.5095 35.8717C96.0897 37.0538 96.632 38.1911 97.2713 39.4198L97.2481 39.3752C98.553 42.0638 99.8284 44.7655 101.011 47.4938C102.888 51.7995 104.768 56.1011 106.651 60.4012L106.913 61L107.567 61C107.657 61 107.747 61 107.836 61C110.213 61 112.59 60.9909 114.967 60.9726L115.61 60.9677L115.858 60.391C117.921 55.5915 119.944 50.7744 121.926 45.9395C122.497 44.5762 123.075 43.2105 123.667 41.8531C123.895 41.3307 124.126 40.8092 124.359 40.2907C124.697 39.5248 125.038 38.7654 125.384 38.0086C125.736 37.206 126.076 36.4075 126.408 35.6062ZM125.726 35.2938L126.408 35.6062L126.442 35.45H125.692L125.726 35.2938ZM131.161 59.4766C131.411 59.4922 131.66 59.5078 131.91 59.5234C132.077 58.1822 132.215 56.8366 132.324 55.488C132.431 54.1611 132.509 52.8313 132.558 51.5C132.701 47.6833 132.776 43.8667 132.785 40.05L132.787 39.053L131.786 39.0508C131.446 39.0532 131.188 39.0888 130.926 39.1252C129.911 39.2793 128.986 39.5021 128.048 39.7301L128.077 39.7235C127.843 39.7738 127.61 39.824 127.377 39.8743L128.478 40.4038C128.428 40.3038 128.378 40.2039 128.328 40.1039L128.417 40.7269C128.748 38.8764 129.077 37.0257 129.405 35.1746L128.436 35.9845C129.952 35.9796 131.469 35.9734 132.986 35.9662C133.981 35.9611 134.965 35.9155 135.945 35.8489C136.798 35.7891 137.638 35.7293 138.548 35.5709L137.499 34.9457C137.533 35.0455 137.567 35.1453 137.601 35.245L137.555 34.8854C137.377 37.7664 137.347 40.6351 137.373 43.5C137.41 47.3167 137.454 51.1333 137.506 54.95L137.516 55.6892L138.236 55.6795C139.592 55.5481 140.553 55.2626 141.681 55.0163L141.692 55.0138C141.974 54.943 142.257 54.8721 142.539 54.8011L141.787 54.4492C141.839 54.5484 141.89 54.6476 141.942 54.7469L141.882 54.3323C141.577 56.1873 141.274 58.0427 140.972 59.8984L141.536 59.427C139.381 59.4637 137.226 59.5029 135.071 59.5444C133.893 59.5672 132.714 59.5906 131.536 59.6147L131.921 60C131.918 59.8333 131.914 59.6667 131.911 59.5C131.661 59.5 131.411 59.5 131.161 59.5C131.157 59.6667 131.154 59.8333 131.15 60L131.143 60.3772L131.536 60.3853C132.714 60.4094 133.893 60.4328 135.071 60.4556C137.226 60.4971 139.381 60.5363 141.536 60.573L142.005 60.581L142.1 60.1016C142.465 58.2573 142.828 56.4127 143.189 54.5677L143.23 54.361L143.13 54.1531C143.081 54.0524 143.033 53.9516 142.984 53.8508L142.759 53.3833L142.233 53.4989C141.948 53.5613 141.664 53.6237 141.38 53.6862L141.39 53.6837C140.329 53.8921 139.108 54.1578 138.236 54.2205L138.965 54.95C139.017 51.1333 139.061 47.3167 139.098 43.5C139.128 40.6611 139.205 37.8246 139.417 35.0146L139.371 34.655C139.338 34.5547 139.306 34.4545 139.273 34.3543L139.025 33.5931L138.223 33.7291C137.481 33.8494 136.646 33.9044 135.828 33.951C134.875 34.0047 133.926 34.0382 132.986 34.0338C131.469 34.0266 129.952 34.0204 128.436 34.0155L127.616 34.0128L127.467 34.8254C127.128 36.6743 126.79 38.5236 126.454 40.3731L126.395 40.6981L126.544 40.9961C126.593 41.0961 126.643 41.1962 126.693 41.2962L127.038 41.987L127.795 41.8257C128.028 41.776 128.262 41.7262 128.495 41.6765L128.524 41.6699C129.43 41.4505 130.35 41.2344 131.212 41.1046C131.424 41.0737 131.646 41.0496 131.786 41.0492L130.787 40.05C130.795 43.8667 130.871 47.6833 131.013 51.5C131.063 52.8154 131.1 54.1323 131.124 55.4508C131.15 56.791 131.162 58.1329 131.161 59.4766ZM131.91 59.5234L131.161 59.4766L131.161 59.5H131.911L131.91 59.5234ZM139.738 23.1818C139.136 22.8939 138.535 22.6061 137.934 22.3182C137.712 22.7819 137.49 23.2455 137.268 23.7092C135.99 26.3789 134.712 29.0485 133.434 31.7182L134.336 31.15C134.169 31.15 134.002 31.15 133.836 31.15L134.738 31.7182C133.238 28.5849 131.738 25.4515 130.238 22.3182L129.336 23.75C131.988 23.75 134.641 23.75 137.294 23.75C137.808 23.75 138.322 23.75 138.836 23.75C138.836 23.0833 138.836 22.4167 138.836 21.75C138.322 21.75 137.808 21.75 137.294 21.75C134.641 21.75 131.988 21.75 129.336 21.75H127.748L128.434 23.1818C129.934 26.3151 131.434 29.4485 132.934 32.5818L133.206 33.15H133.836C134.002 33.15 134.169 33.15 134.336 33.15H134.966L135.238 32.5818C136.516 29.9121 137.794 27.2424 139.072 24.5728C139.294 24.1091 139.516 23.6455 139.738 23.1818ZM137.934 22.3182L139.738 23.1818L140.423 21.75H138.836V23.75L137.934 22.3182ZM161.241 61.7C161.47 61.8 161.7 61.9 161.929 62C162.364 61.0985 162.797 60.1964 163.229 59.2936L163.906 57.7988L162.516 58.6973C162.311 58.8238 162.098 58.9432 161.882 59.0571L161.934 59.0312C161.692 59.1252 161.445 59.2134 161.196 59.2972C160.64 59.4836 160.059 59.6165 159.468 59.7154C159.424 59.7233 159.386 59.7297 159.348 59.7359C158.768 59.8299 158.177 59.8624 157.585 59.8445C155.457 59.7883 153.38 59.2369 151.58 58.1836C149.851 57.1714 148.447 55.696 147.49 53.9418C146.449 52.0626 146.008 49.8931 146.024 47.7C146.031 46.3537 146.202 45.0227 146.579 43.7591C146.83 42.9163 147.173 42.1052 147.605 41.3428L147.598 41.3536C148.639 39.5515 150.143 38.0665 151.964 37.071L151.975 37.0649C153.845 35.9932 155.997 35.4806 158.185 35.4823C160.361 35.4717 162.508 35.9358 164.358 36.9882C166.121 37.9745 167.572 39.4381 168.563 41.2097C169.635 43.0611 170.118 45.2148 170.123 47.4C170.125 47.7395 170.111 48.0792 170.082 48.4179L170.078 48.5C170.08 48.7994 170.056 49.0922 170.001 49.3732L170.885 48.6488C164.368 48.6816 157.852 48.7227 151.335 48.772L150.402 48.779L150.569 49.6852C150.779 50.8436 151.22 51.9937 151.916 52.9784C152.586 53.9407 153.518 54.7271 154.551 55.2456L154.569 55.2546C155.712 55.7988 156.973 56.0097 158.185 55.9976C159.266 55.9903 160.369 55.7977 161.388 55.3708L161.407 55.3626C162.289 54.962 163.137 54.4226 163.841 53.7059L163.828 53.7181C164.442 53.1269 164.991 52.4255 165.352 51.6051L165.341 51.628C165.374 51.561 165.406 51.494 165.439 51.427L164.735 51.751C166.539 52.1832 168.344 52.6147 170.149 53.0456L169.744 52.3477C168.918 55.4085 168.094 58.4697 167.272 61.5315C167.232 61.6804 167.192 61.8293 167.152 61.9781L167.585 61.6499C165.668 61.6728 163.752 61.6963 161.835 61.7205L162.103 61.8317C162.019 61.7494 161.935 61.6671 161.85 61.5848C161.673 61.7616 161.497 61.9384 161.32 62.1152C161.402 62.1996 161.484 62.2839 161.567 62.3683L161.673 62.4774L161.835 62.4795C163.752 62.5037 165.668 62.5272 167.585 62.5501L167.921 62.5541L168.018 62.2219C168.062 62.074 168.105 61.9261 168.149 61.7782C169.043 58.7367 169.936 55.6948 170.826 52.6523L170.987 52.1023L170.421 51.9544C168.626 51.4853 166.831 51.0168 165.035 50.549L164.56 50.4253L164.331 50.873C164.297 50.9393 164.263 51.0056 164.229 51.072L164.218 51.0949C163.928 51.7216 163.476 52.2862 162.942 52.7819L162.929 52.7941C162.35 53.3621 161.636 53.8033 160.863 54.1374L160.882 54.1292C160.035 54.4655 159.116 54.6123 158.185 54.6024C157.132 54.5939 156.103 54.3936 155.201 53.9454L155.219 53.9544C154.383 53.5147 153.674 52.892 153.154 52.1216C152.608 51.3215 152.264 50.3933 152.101 49.4148L151.335 50.328C157.852 50.3773 164.368 50.4184 170.885 50.4512L171.619 50.4549L171.769 49.7268C171.852 49.3171 171.89 48.9048 171.891 48.5L171.888 48.5821C171.925 48.1895 171.945 47.7948 171.947 47.4C171.966 44.973 171.441 42.4573 170.204 40.2843C169.084 38.2378 167.359 36.4685 165.312 35.3118C163.143 34.0581 160.622 33.5139 158.185 33.5177C155.716 33.502 153.178 34.0878 150.995 35.3351L151.006 35.329C148.881 36.4783 147.073 38.2607 145.872 40.3464L145.865 40.3572C145.358 41.2515 144.954 42.2059 144.662 43.1884C144.223 44.6623 144.038 46.1925 144.046 47.7C144.049 50.1506 144.599 52.689 145.88 54.8582C147.03 56.849 148.758 58.542 150.784 59.6135C152.88 60.7295 155.27 61.2279 157.585 61.1555C158.252 61.1378 158.922 61.0617 159.579 60.9135C159.622 60.9038 159.665 60.8938 159.708 60.8834C160.333 60.7386 160.962 60.5536 161.573 60.3028C161.829 60.1975 162.083 60.0869 162.336 59.9688L162.388 59.9429C162.613 59.8042 162.836 59.6585 163.053 59.5027L162.341 58.9064C161.973 59.8369 161.606 60.7681 161.241 61.7ZM161.929 62L161.241 61.7L161.148 61.9387L161.32 62.1152L161.85 61.5848L161.929 62ZM163.507 45.4075C164.159 45.2692 164.811 45.1308 165.463 44.9925C165.342 44.4199 165.168 43.8492 164.929 43.2973C164.694 42.7543 164.396 42.2304 164.035 41.75L164.051 41.772C163.402 40.8444 162.482 40.0802 161.469 39.599L161.495 39.6122C160.377 39.0285 159.123 38.7972 157.935 38.8C156.747 38.7972 155.493 39.0285 154.375 39.6122L154.401 39.599C153.379 40.0853 152.459 40.8421 151.785 41.75L151.769 41.772C151.073 42.7519 150.642 43.8755 150.407 44.9925L150.151 46.2H151.385C155.225 46.2 159.064 46.2 162.904 46.2C163.431 46.2 163.958 46.2 164.485 46.2C164.485 45.5333 164.485 44.8667 164.485 44.2C163.958 44.2 163.431 44.2 162.904 44.2C159.064 44.2 155.225 44.2 151.385 44.2L152.363 45.4075C152.556 44.4959 152.893 43.6437 153.401 42.928L153.385 42.95C153.882 42.2846 154.52 41.7597 155.269 41.401L155.295 41.3878C156.079 40.9794 156.987 40.7986 157.935 40.8C158.883 40.7986 159.791 40.9794 160.575 41.3878L160.601 41.401C161.337 41.7534 161.954 42.2688 162.419 42.928L162.435 42.95C162.697 43.2994 162.917 43.6825 163.094 44.0916C163.274 44.5071 163.41 44.9492 163.507 45.4075ZM165.463 44.9925L163.507 45.4075L164.485 44.2V46.2H165.719L165.463 44.9925ZM204.729 61.125C204.729 60.875 204.729 60.625 204.729 60.375C203.562 60.348 202.403 60.1977 201.284 59.9077L201.271 59.9049C200.24 59.6689 199.233 59.3502 198.285 58.9204L198.295 58.925C197.951 58.7598 197.61 58.5894 197.273 58.4127C196.981 58.2591 196.697 58.0963 196.429 57.9211L194.908 56.9526L195.611 58.6233C195.847 59.2034 196.084 59.7834 196.322 60.3632C196.579 60.9928 196.837 61.6223 197.095 62.2517L197.196 61.5857C197.094 61.7006 196.992 61.8156 196.89 61.9305L197.379 61.7054C195.263 61.6688 193.146 61.635 191.029 61.6041L191.751 62.161C190.539 57.2422 189.312 52.3276 188.069 47.417L187.47 48.5224C189.175 47.9697 190.879 47.4151 192.582 46.8586L191.39 46.3057C191.554 46.7233 191.719 47.141 191.883 47.5585L191.89 47.5755C192.581 49.245 193.661 50.7424 194.951 51.9666L194.97 51.9846C196.309 53.1969 197.868 54.1942 199.555 54.8756C200.468 55.2385 201.415 55.5153 202.385 55.6877C203.174 55.8284 203.977 55.9001 204.779 55.8999C206.296 55.8898 207.921 55.7228 209.431 54.8639C210.643 54.2312 211.605 52.6518 211.527 51.25C211.562 50.1493 211.026 48.8642 210.128 48.1435C209.19 47.3453 208.123 46.8395 207.06 46.4624L207.094 46.4749C205.442 45.8401 203.814 45.4118 202.173 44.9905L202.372 45.0645C202.188 44.9726 201.986 44.894 201.769 44.84C201.599 44.7977 201.436 44.7624 201.273 44.7301L201.344 44.747C199.25 44.166 197.185 43.4966 195.22 42.6497C193.594 41.9375 192.151 40.8275 190.964 39.4616C189.717 38.0571 189.185 36.1336 189.191 34.15C189.18 32.3429 189.626 30.5858 190.681 29.2308L190.687 29.2226C191.703 27.8602 193.105 26.8374 194.714 26.2254L194.727 26.22C196.49 25.5067 198.401 25.1746 200.329 25.1714C200.922 25.1697 201.508 25.2103 202.079 25.3037L202.134 25.3111C202.689 25.3679 203.235 25.4548 203.759 25.5839L203.821 25.5972C204.325 25.6845 204.818 25.8032 205.293 25.9597L205.261 25.9486C205.503 26.0382 205.741 26.132 205.973 26.2308L206.012 26.2463C206.254 26.336 206.492 26.4297 206.724 26.5285L208.828 27.4255L207.905 25.337C207.535 24.5047 207.166 23.6725 206.797 22.8404L206.665 23.7716C206.748 23.6714 206.832 23.5711 206.915 23.4709L206.229 23.7917C208.396 23.7848 210.563 23.7776 212.729 23.77L211.883 23.1029C212.983 27.6158 214.083 32.1283 215.185 36.6405L215.726 35.6734C214.095 36.2135 212.464 36.7538 210.833 37.2943L211.803 37.721C211.719 37.5381 211.635 37.3551 211.551 37.1721C210.842 35.6647 209.879 34.259 208.666 33.0965L208.683 33.1133C207.607 32.0099 206.317 31.0782 204.879 30.4622C203.612 29.8992 202.202 29.5593 200.779 29.569C199.441 29.5748 197.992 29.8299 196.78 30.6611L196.795 30.6514C195.708 31.2892 195.025 32.6961 195.084 33.9C195.062 34.9558 195.558 36.1116 196.373 36.8046C197.207 37.5519 198.186 38.0865 199.19 38.4689L199.208 38.4755C200.657 38.9751 202.106 39.375 203.562 39.7655L203.575 39.7689C203.842 39.8341 204.109 39.8992 204.376 39.9643L204.348 39.9565C204.515 40.0055 204.681 40.0545 204.848 40.1035L204.868 40.1091C207.142 40.702 209.407 41.3583 211.551 42.2408C213.192 42.9171 214.653 43.9935 215.807 45.3551C217.105 46.8145 217.615 48.8391 217.619 50.85C217.645 52.7294 217.128 54.6028 215.963 56.0568C215.583 56.5392 215.155 56.9834 214.687 57.3825C213.71 58.2172 212.558 58.8483 211.335 59.2989C209.239 60.0507 206.983 60.3578 204.729 60.375C204.729 60.625 204.729 60.875 204.729 61.125C207.047 61.1424 209.396 60.8633 211.62 60.1024C212.931 59.6414 214.188 58.9798 215.273 58.0802C215.792 57.6504 216.27 57.1681 216.696 56.6432C218.031 55.0292 218.644 52.8946 218.64 50.85C218.665 48.6991 218.146 46.371 216.647 44.6394C215.415 43.1451 213.807 41.9253 212.008 41.1592C209.782 40.2112 207.491 39.5201 205.191 38.8909L205.211 38.8965C205.044 38.8455 204.878 38.7945 204.711 38.7435L204.683 38.7357C204.417 38.6675 204.151 38.5993 203.884 38.531L203.897 38.5345C202.463 38.132 201.028 37.7168 199.651 37.2245L199.669 37.2311C198.783 36.8824 197.959 36.4125 197.286 35.7954C196.737 35.2988 196.465 34.649 196.475 33.9C196.472 33.0079 196.836 32.2985 197.564 31.8486L197.579 31.8389C198.466 31.2411 199.613 31.0227 200.779 31.031C201.976 31.0354 203.163 31.3295 204.273 31.8349C205.517 32.3827 206.628 33.197 207.576 34.1867L207.593 34.2035C208.648 35.2345 209.488 36.4786 210.112 37.8351C210.191 38.0116 210.273 38.1953 210.356 38.379L210.646 39.0246L211.326 38.8057C212.962 38.2795 214.598 37.7531 216.233 37.2266L216.947 36.9966L216.774 36.2595C215.709 31.7383 214.643 27.2175 213.576 22.6971L213.419 22.0324L212.729 22.03C210.563 22.0224 208.396 22.0152 206.229 22.0083L205.815 22.007L205.544 22.3291C205.461 22.4289 205.377 22.5286 205.294 22.6283L204.94 23.05L205.162 23.5596C205.526 24.3941 205.89 25.2286 206.254 26.063L207.435 24.8715C207.172 24.7582 206.91 24.6532 206.647 24.5537L206.686 24.5692C206.423 24.4559 206.161 24.3509 205.898 24.2514L205.866 24.2403C205.297 24.0488 204.718 23.9068 204.138 23.8028L204.2 23.8161C203.575 23.6582 202.948 23.5564 202.325 23.4889L202.38 23.4963C201.696 23.3806 201.009 23.3304 200.329 23.3286C198.202 23.3199 196.038 23.6788 194.031 24.48L194.045 24.4746C192.151 25.1794 190.4 26.4358 189.172 28.0774L189.178 28.0692C187.804 29.8127 187.258 32.0637 187.268 34.15C187.244 36.4224 187.879 38.9114 189.495 40.7384C190.836 42.2925 192.522 43.606 194.433 44.4475C196.523 45.3547 198.661 46.0505 200.815 46.653L200.886 46.6699C201.025 46.6979 201.161 46.7278 201.289 46.76C201.35 46.7752 201.416 46.7997 201.487 46.8355L201.686 46.9095C203.284 47.3217 204.894 47.7557 206.365 48.3251L206.399 48.3376C207.311 48.6605 208.168 49.0874 208.831 49.6565C209.313 50.0704 209.531 50.5756 209.532 51.25C209.532 52.1009 209.178 52.6898 208.419 53.141C207.435 53.7117 206.109 53.9002 204.779 53.9001C204.095 53.9001 203.411 53.8391 202.735 53.7187C201.906 53.5711 201.089 53.3344 200.297 53.0217C198.834 52.4342 197.479 51.5781 196.289 50.5154L196.308 50.5334C195.181 49.4764 194.267 48.2245 193.669 46.8245L193.676 46.8415C193.507 46.4257 193.338 46.01 193.169 45.5943L192.826 44.7526L191.977 45.0414C190.28 45.6183 188.584 46.197 186.889 46.7776L186.067 47.0591L186.29 47.883C187.614 52.7724 188.953 57.6578 190.308 62.539L190.465 63.1042L191.029 63.0959C193.146 63.065 195.263 63.0312 197.379 62.9946L197.687 62.9893L197.869 62.7695C197.967 62.6511 198.065 62.5327 198.163 62.4143L198.423 62.0999L198.264 61.7483C197.984 61.1283 197.704 60.5084 197.424 59.8887C197.165 59.3179 196.907 58.7472 196.648 58.1767L195.83 58.8789C196.144 59.0674 196.464 59.2337 196.786 59.3873C197.143 59.5573 197.502 59.7193 197.864 59.875L197.874 59.8796C198.917 60.3027 199.999 60.5943 201.088 60.7951L201.075 60.7923C202.28 61.0499 203.51 61.1527 204.729 61.125ZM204.729 60.375V61.125V60.375ZM235.515 61.6654C235.748 61.7551 235.982 61.8449 236.215 61.9346C236.58 61.0801 236.943 60.225 237.306 59.3695L237.913 57.8512L236.582 58.8223C236.45 58.9135 236.309 58.999 236.163 59.0798C236.02 59.1587 235.874 59.2257 235.726 59.2781L235.674 59.3025C235.261 59.5067 234.823 59.6589 234.372 59.7632C233.946 59.8686 233.492 59.903 233.032 59.8983C232.977 59.8977 232.921 59.8965 232.865 59.8948C230.957 59.852 229.109 59.2465 227.909 57.9191L227.922 57.9327C226.662 56.521 226.259 54.5026 226.298 52.5C226.363 48.3667 226.401 44.2333 226.412 40.1L226.414 39.1059L225.415 39.1033C224.798 39.1017 224.182 39.1006 223.565 39.1002C223.269 39.102 223.037 39.1278 222.801 39.155C222.435 39.1992 222.089 39.2551 221.744 39.3148C221.041 39.443 220.344 39.5935 219.648 39.787L219.698 39.7744C219.548 39.8077 219.398 39.8411 219.248 39.8745L220.359 40.4031C220.309 40.3031 220.259 40.2032 220.209 40.1032L220.298 40.7272C220.631 38.877 220.963 37.0268 221.294 35.1764L220.272 35.9938C221.039 36.0262 221.805 36.0586 222.572 36.0909L222.539 36.0889C223.361 36.1462 224.274 36.1167 225.186 35.6944L225.167 35.7033C225.882 35.3944 226.577 34.811 226.974 34.083C227.43 33.2638 227.546 32.3907 227.546 31.6C227.544 30.7333 227.542 29.8667 227.54 29L226.565 29.9753C227.509 29.9731 228.455 29.955 229.401 29.9175C230.247 29.8847 231.096 29.8369 231.952 29.757L230.904 28.8C230.91 30.8667 230.917 32.9333 230.925 35L230.929 35.9434L231.865 35.9399C232.415 35.9378 232.965 35.9357 233.515 35.9335C235.066 35.9214 236.568 35.8204 238.078 35.7124L238.092 35.7113C239.46 35.5831 240.794 35.4751 242.225 35.2309L241.32 34.8466C241.387 34.9463 241.454 35.046 241.522 35.1456L241.386 34.4887C241.062 36.3071 240.738 38.1255 240.415 39.9441L241.265 39.236C238.132 39.2537 234.998 39.2731 231.865 39.2943L231.054 39.2997L231.059 40.1C231.07 41.65 231.081 43.2 231.092 44.75C231.099 45.7028 231.08 46.6532 231.016 47.5924L231.014 47.62C230.99 48.3695 230.937 49.1148 230.839 49.8463L230.834 49.8891C230.807 50.2532 230.777 50.6165 230.744 50.9779L230.74 51.05C230.743 51.35 230.745 51.65 230.748 51.95C230.753 52.9047 230.961 53.9961 231.681 54.8454L231.693 54.8603C232.332 55.6102 233.386 55.9532 234.265 55.926C235.033 55.9255 235.779 55.6498 236.373 55.2538C237.065 54.7868 237.644 54.1811 238.093 53.5112L238.08 53.5294C238.558 52.8697 238.948 52.1317 239.202 51.3456L239.205 51.3345C239.286 51.067 239.367 50.7995 239.448 50.5321L238.739 50.9473C240.326 51.2655 241.912 51.5833 243.499 51.9006L243.06 51.2588C242.553 54.5515 242.048 57.8445 241.545 61.1379C241.505 61.4011 241.465 61.6644 241.424 61.9276L241.865 61.5535C239.932 61.5755 237.998 61.5982 236.065 61.6216L236.333 61.7324C236.265 61.6666 236.198 61.6007 236.13 61.5348C235.953 61.7116 235.777 61.8884 235.6 62.0652C235.666 62.1326 235.732 62.2001 235.797 62.2676L235.904 62.3765L236.065 62.3784C237.998 62.4018 239.932 62.4245 241.865 62.4465L242.239 62.4508L242.306 62.0724C242.352 61.8101 242.398 61.5479 242.444 61.2856C243.021 58.0045 243.597 54.723 244.17 51.4412L244.262 50.9168L243.731 50.7994C242.151 50.45 240.571 50.1011 238.991 49.7527L238.455 49.6344L238.282 50.1679C238.197 50.4338 238.111 50.6997 238.025 50.9655L238.028 50.9544C237.805 51.6039 237.469 52.214 237.05 52.7706L237.037 52.7888C236.657 53.3331 236.191 53.7989 235.649 54.1512C235.214 54.4272 234.742 54.581 234.265 54.574C233.624 54.5695 233.099 54.3671 232.737 53.9397L232.749 53.9546C232.335 53.453 232.173 52.7242 232.182 51.95C232.185 51.65 232.187 51.35 232.19 51.05L232.186 51.1221C232.226 50.7509 232.262 50.3807 232.296 50.0109L232.291 50.0537C232.41 49.2608 232.478 48.469 232.516 47.68L232.514 47.7076C232.597 46.7175 232.631 45.7322 232.638 44.75C232.649 43.2 232.66 41.65 232.671 40.1L231.865 40.9057C234.998 40.9269 238.132 40.9463 241.265 40.964L241.98 40.9681L242.115 40.2559C242.458 38.4411 242.801 36.6263 243.144 34.8113L243.21 34.4601L243.008 34.1544C242.942 34.054 242.876 33.9537 242.81 33.8534L242.489 33.366L241.905 33.4691C240.656 33.6709 239.277 33.7768 237.938 33.8887L237.952 33.8876C236.464 33.9813 234.969 34.0671 233.515 34.0665C232.965 34.0643 232.415 34.0622 231.865 34.0601L232.805 35C232.813 32.9333 232.82 30.8667 232.826 28.8L232.829 27.7507L231.778 27.843C230.971 27.9135 230.152 27.9552 229.33 27.9825C228.41 28.014 227.488 28.0269 226.565 28.0247L225.592 28.0223L225.59 29C225.588 29.8667 225.586 30.7333 225.584 31.6C225.584 32.1851 225.481 32.725 225.256 33.117C225.059 33.4658 224.77 33.7165 224.364 33.8967L224.344 33.9056C223.922 34.1062 223.32 34.1623 222.691 34.1111L222.658 34.1091C221.892 34.0747 221.125 34.0404 220.358 34.0062L219.491 33.9676L219.336 34.8236C219.001 36.6732 218.666 38.523 218.332 40.3728L218.273 40.6993L218.421 40.9968C218.471 41.0968 218.521 41.1969 218.571 41.2969L218.92 41.9945L219.682 41.8255C219.832 41.7922 219.982 41.7589 220.132 41.7256L220.183 41.713C220.803 41.5411 221.444 41.402 222.094 41.2838C222.409 41.2291 222.731 41.1778 223.039 41.1408C223.231 41.1177 223.43 41.0999 223.565 41.0998C224.182 41.0994 224.798 41.0983 225.415 41.0967L224.418 40.1C224.429 44.2333 224.467 48.3667 224.532 52.5C224.558 54.7284 225.1 57.2147 226.808 58.9673L226.821 58.9809C228.43 60.6076 230.779 61.1862 232.865 61.1052C232.929 61.1035 232.993 61.1011 233.057 61.098C233.588 61.0718 234.129 61.0028 234.668 60.8342C235.178 60.6825 235.684 60.4702 236.156 60.1975L236.104 60.2219C236.303 60.1357 236.491 60.0332 236.667 59.9202C236.83 59.8154 236.991 59.7029 237.148 59.5777L236.424 59.0305C236.12 59.9083 235.817 60.7866 235.515 61.6654ZM236.215 61.9346L235.515 61.6654L235.436 61.8968L235.6 62.0652L236.13 61.5348L236.215 61.9346ZM259.414 60.875C259.414 60.625 259.414 60.375 259.414 60.125C258.045 60.0422 256.698 59.8046 255.425 59.3846C254.508 59.0829 253.63 58.6874 252.807 58.2047L252.82 58.2114C250.99 57.0991 249.489 55.5567 248.464 53.7253C247.409 51.8394 246.909 49.6933 246.914 47.5104C246.914 47.5069 246.914 47.5035 246.914 47.5C246.907 45.3092 247.417 43.1551 248.517 41.3062C249.566 39.5133 251.092 38.0473 252.925 37.0533L252.936 37.0474C254.878 35.945 257.129 35.4406 259.414 35.4305C261.716 35.409 264.003 35.8737 265.988 36.9633L265.998 36.9686C267.849 37.9373 269.406 39.3962 270.465 41.2029L270.47 41.2117C271.615 43.0746 272.169 45.2688 272.192 47.5C272.231 49.712 271.733 51.9191 270.629 53.8327C269.565 55.7139 267.972 57.2741 266.069 58.3532C265.238 58.8367 264.353 59.2225 263.433 59.5054C262.141 59.9035 260.782 60.0978 259.414 60.125C259.414 60.375 259.414 60.625 259.414 60.875C260.842 60.9033 262.286 60.7557 263.684 60.3812C264.68 60.1153 265.649 59.7344 266.562 59.2451C268.641 58.164 270.466 56.5015 271.699 54.4673C272.986 52.3917 273.616 49.9241 273.636 47.5C273.677 45.0637 273.121 42.5439 271.858 40.3883L271.863 40.3971C270.71 38.3184 268.919 36.568 266.83 35.4314L266.839 35.4367C264.58 34.1413 261.958 33.5774 259.414 33.5695C256.883 33.5449 254.265 34.0859 251.992 35.3526L252.002 35.3467C249.877 36.4696 248.035 38.2127 246.811 40.2938C245.502 42.4635 244.902 45.0234 244.914 47.5C244.914 47.5039 244.914 47.5079 244.914 47.5118C244.903 49.9898 245.546 52.5348 246.86 54.6688C248.123 56.7348 249.989 58.4232 252.108 59.4886L252.12 59.4953C253.075 59.9595 254.082 60.3099 255.107 60.5417C256.531 60.8648 257.987 60.9588 259.414 60.875ZM259.414 60.125V60.875V60.125ZM259.414 53.9C259.414 54.5667 259.414 55.2333 259.414 55.9C260.259 55.9008 261.126 55.7777 261.951 55.4982C262.471 55.3233 262.971 55.0881 263.436 54.8026L263.424 54.8099C264.636 54.1028 265.646 52.9943 266.258 51.7472L266.248 51.7679C266.952 50.4503 267.269 48.9458 267.264 47.5C267.269 46.0542 266.952 44.5497 266.248 43.2321L266.258 43.2528C265.646 42.0057 264.636 40.8972 263.424 40.1901L263.436 40.1974C262.232 39.4486 260.788 39.0917 259.414 39.1C258.04 39.0917 256.596 39.4486 255.391 40.1974C254.192 40.9228 253.213 42.0199 252.58 43.2321C251.876 44.5497 251.559 46.0542 251.564 47.5C251.559 48.9458 251.876 50.4503 252.58 51.7679C253.213 52.9801 254.192 54.0772 255.391 54.8026C255.857 55.0881 256.357 55.3233 256.876 55.4982C257.702 55.7777 258.569 55.9008 259.414 55.9C259.414 55.2333 259.414 54.5667 259.414 53.9C258.756 53.9004 258.115 53.8058 257.516 53.6032C257.139 53.476 256.778 53.3065 256.436 53.0974C255.55 52.5577 254.844 51.776 254.348 50.8321C253.811 49.8251 253.561 48.6811 253.564 47.5C253.561 46.3189 253.811 45.1749 254.348 44.1679C254.844 43.224 255.55 42.4423 256.436 41.9026C257.318 41.358 258.341 41.0971 259.414 41.1C260.487 41.0971 261.509 41.358 262.391 41.9026L262.403 41.9099C263.299 42.4377 264.002 43.2053 264.469 44.1472L264.48 44.1679C265.016 45.1749 265.266 46.3189 265.264 47.5C265.266 48.6811 265.016 49.8251 264.48 50.8321L264.469 50.8528C264.002 51.7947 263.299 52.5623 262.403 53.0901L262.391 53.0974C262.05 53.3065 261.689 53.476 261.312 53.6032C260.713 53.8058 260.072 53.9004 259.414 53.9ZM259.414 55.9V53.9V55.9ZM300.856 43.9044C300.775 43.6681 300.693 43.4319 300.611 43.1956C298.803 43.7401 296.997 44.2912 295.193 44.8489L295.92 45.1703C295.855 45.0057 295.789 44.8416 295.72 44.678C295.36 43.8262 294.946 42.9823 294.377 42.1864L294.386 42.1986C293.896 41.4877 293.27 40.8042 292.432 40.3384C291.686 39.9202 290.819 39.7124 289.984 39.6994C289.153 39.6759 288.233 39.8962 287.496 40.4087L287.524 40.3896C286.768 40.8543 286.201 41.5944 285.87 42.3512C285.465 43.2615 285.321 44.2281 285.309 45.15C285.263 48.4167 285.238 51.6833 285.234 54.95L285.233 55.9482L286.234 55.9494C286.596 55.9485 286.917 55.9246 287.238 55.8978C287.86 55.8438 288.463 55.7701 289.064 55.6912L289.09 55.6875C290.135 55.5212 291.18 55.3467 292.237 55.1272L291.141 54.5964C291.191 54.6964 291.241 54.7963 291.291 54.8963L291.202 54.273C290.87 56.1233 290.539 57.9737 290.208 59.8242L291.184 59.0087C287.3 59.0148 283.417 59.0243 279.534 59.0371L280.497 60C280.496 59.8333 280.496 59.6667 280.495 59.5L280.493 59.56C280.652 56.8763 280.726 54.1878 280.714 51.5C280.696 47.6833 280.676 43.8667 280.652 40.05L280.647 39.1763L279.784 39.1816C278.335 39.2707 277.276 39.5976 276.082 39.879L276.107 39.8734C275.874 39.925 275.641 39.9765 275.408 40.0281L276.336 40.4741C276.285 40.3744 276.234 40.2748 276.184 40.1751L276.259 40.6986C276.579 38.8464 276.899 36.9939 277.218 35.1414L276.434 35.7972C277.667 35.7877 278.9 35.7779 280.134 35.7678C281.109 35.7591 282.071 35.7081 283.029 35.6424C283.879 35.581 284.713 35.5251 285.617 35.3592L284.799 34.8782C284.833 34.9779 284.868 35.0776 284.902 35.1773L284.866 34.9052C284.852 35.172 284.838 35.4388 284.824 35.7056L284.828 35.6618C284.794 35.9562 284.777 36.2532 284.78 36.55C284.782 36.7879 284.77 37.0262 284.743 37.2636L286.042 37.6903C286.443 36.9456 287.121 36.3606 287.932 35.947L287.948 35.9389C288.757 35.4958 289.625 35.1964 290.484 35.1874C290.762 35.1841 291.035 35.2076 291.298 35.2626C291.545 35.3143 291.783 35.3941 292.007 35.5028L291.941 35.4642C292.042 35.5298 292.142 35.5954 292.243 35.6611C292.31 35.7038 292.381 35.7622 292.452 35.8314L293.448 35.169C293.141 34.4389 292.833 33.7088 292.525 32.9788L292.397 33.6132C292.479 33.5289 292.562 33.4447 292.644 33.3604L292.234 33.5304C294.167 33.509 296.1 33.4869 298.034 33.4639L297.536 33.0768C297.946 34.6102 298.356 36.1434 298.768 37.6765C299.301 39.6654 299.835 41.6541 300.37 43.6426C300.613 43.5809 300.855 43.5191 301.097 43.4574C300.616 41.4553 300.134 39.4533 299.651 37.4516C299.278 35.9087 298.905 34.3659 298.532 32.8232L298.439 32.441L298.034 32.4361C296.1 32.4131 294.167 32.391 292.234 32.3696L292 32.367L291.823 32.5396C291.739 32.622 291.655 32.7044 291.571 32.7868L291.297 33.054L291.443 33.4212C291.735 34.1579 292.027 34.8945 292.319 35.631L293.315 34.9686C293.202 34.8535 293.075 34.741 292.924 34.6389C292.825 34.5712 292.726 34.5035 292.627 34.4358L292.56 34.3972C292.246 34.2362 291.91 34.1161 291.57 34.0374C291.209 33.9538 290.843 33.9158 290.484 33.9126C289.341 33.9025 288.264 34.2688 287.32 34.7611L287.335 34.753C286.349 35.2291 285.404 35.9843 284.826 37.0097L286.125 37.4364C286.164 37.1432 286.185 36.8468 286.188 36.55C286.19 36.312 286.208 36.0744 286.24 35.8382L286.244 35.7944C286.263 35.5279 286.282 35.2613 286.301 34.9948L286.266 34.7227C286.233 34.6224 286.201 34.5221 286.168 34.4218L285.977 33.8293L285.351 33.9408C284.604 34.0655 283.761 34.114 282.94 34.1575C281.999 34.2059 281.06 34.2393 280.134 34.2322C278.9 34.2221 277.667 34.2123 276.434 34.2028L275.774 34.1977L275.649 34.8586C275.302 36.7061 274.955 38.5536 274.609 40.4014L274.559 40.6696L274.684 40.9249C274.733 41.0252 274.783 41.1256 274.832 41.2259L275.117 41.8051L275.76 41.6719C275.994 41.6235 276.227 41.575 276.461 41.5266L276.485 41.521C277.604 41.2622 278.855 40.9575 279.784 40.9184L278.915 40.05C278.892 43.8667 278.871 47.6833 278.854 51.5C278.842 54.149 278.749 56.7973 278.574 59.44L278.573 59.5C278.572 59.6667 278.571 59.8333 278.571 60L278.568 60.9598L279.534 60.9629C283.417 60.9757 287.3 60.9852 291.184 60.9913L292.011 60.9926L292.159 60.1758C292.496 58.3263 292.831 56.4767 293.166 54.627L293.225 54.3012L293.076 54.0037C293.026 53.9037 292.977 53.8036 292.927 53.7036L292.584 53.0164L291.83 53.1728C290.833 53.3783 289.805 53.5497 288.778 53.7125L288.803 53.7088C288.22 53.7851 287.636 53.8558 287.067 53.9051C286.777 53.9298 286.484 53.9497 286.234 53.9506L287.233 54.95C287.229 51.6833 287.204 48.4167 287.158 45.15C287.146 44.4031 287.242 43.6792 287.498 43.0488C287.709 42.5235 288.02 42.0999 288.443 41.8104L288.472 41.7913C288.89 41.4767 289.402 41.3157 289.984 41.3006C290.601 41.2831 291.196 41.3974 291.736 41.6616C292.314 41.9416 292.837 42.4267 293.282 43.0014L293.291 43.0136C293.806 43.6495 294.24 44.4009 294.629 45.1777C294.704 45.327 294.777 45.4778 294.848 45.6297L295.086 46.1383L295.574 45.9511C297.337 45.2755 299.098 44.5933 300.856 43.9044ZM300.611 43.1956L300.856 43.9044L301.175 43.7797L301.097 43.4574L300.37 43.6426L300.611 43.1956ZM318.321 61.7C318.55 61.8 318.78 61.9 319.009 62C319.444 61.0985 319.877 60.1964 320.309 59.2936L320.986 57.7988L319.597 58.6973C319.391 58.8238 319.179 58.9432 318.962 59.0571L319.014 59.0312C318.772 59.1252 318.525 59.2134 318.277 59.2972C317.721 59.4836 317.139 59.6165 316.548 59.7154C316.504 59.7233 316.466 59.7297 316.428 59.7359C315.848 59.8299 315.257 59.8624 314.665 59.8445C312.537 59.7883 310.46 59.2369 308.66 58.1836C306.931 57.1714 305.527 55.696 304.57 53.9418C303.529 52.0626 303.088 49.8931 303.104 47.7C303.111 46.3537 303.282 45.0227 303.659 43.7591C303.91 42.9163 304.253 42.1052 304.685 41.3428L304.678 41.3536C305.719 39.5515 307.223 38.0665 309.044 37.071L309.055 37.0649C310.925 35.9932 313.077 35.4806 315.265 35.4823C317.441 35.4717 319.588 35.9358 321.438 36.9882C323.201 37.9745 324.652 39.4381 325.643 41.2097C326.715 43.0611 327.198 45.2148 327.203 47.4C327.205 47.7395 327.191 48.0792 327.162 48.4179L327.159 48.5C327.16 48.7994 327.136 49.0922 327.081 49.3732L327.965 48.6488C321.448 48.6816 314.932 48.7227 308.415 48.772L307.482 48.779L307.649 49.6852C307.859 50.8436 308.3 51.9937 308.996 52.9784C309.666 53.9407 310.599 54.7271 311.631 55.2456L311.649 55.2546C312.793 55.7988 314.053 56.0097 315.265 55.9976C316.346 55.9903 317.45 55.7977 318.468 55.3708L318.487 55.3626C319.369 54.962 320.217 54.4226 320.921 53.7059L320.908 53.7181C321.522 53.1269 322.072 52.4255 322.432 51.6051L322.421 51.628C322.454 51.561 322.486 51.494 322.519 51.427L321.815 51.751C323.619 52.1832 325.424 52.6147 327.229 53.0456L326.824 52.3477C325.998 55.4085 325.174 58.4697 324.352 61.5315C324.312 61.6804 324.272 61.8293 324.232 61.9781L324.665 61.6499C322.748 61.6728 320.832 61.6963 318.915 61.7205L319.183 61.8317C319.099 61.7494 319.015 61.6671 318.93 61.5848C318.753 61.7616 318.577 61.9384 318.4 62.1152C318.482 62.1996 318.564 62.2839 318.647 62.3683L318.753 62.4774L318.915 62.4795C320.832 62.5037 322.748 62.5272 324.665 62.5501L325.001 62.5541L325.098 62.2219C325.142 62.074 325.185 61.9261 325.229 61.7782C326.123 58.7367 327.016 55.6948 327.906 52.6523L328.067 52.1023L327.501 51.9544C325.706 51.4853 323.911 51.0168 322.115 50.549L321.64 50.4253L321.411 50.873C321.377 50.9393 321.343 51.0056 321.309 51.072L321.298 51.0949C321.008 51.7216 320.556 52.2862 320.022 52.7819L320.009 52.7941C319.43 53.3621 318.716 53.8033 317.943 54.1374L317.962 54.1292C317.115 54.4655 316.196 54.6123 315.265 54.6024C314.212 54.5939 313.183 54.3936 312.281 53.9454L312.299 53.9544C311.463 53.5147 310.754 52.892 310.234 52.1216C309.688 51.3215 309.344 50.3933 309.181 49.4148L308.415 50.328C314.932 50.3773 321.448 50.4184 327.965 50.4512L328.699 50.4549L328.849 49.7268C328.933 49.3171 328.97 48.9048 328.972 48.5L328.968 48.5821C329.005 48.1895 329.025 47.7948 329.027 47.4C329.046 44.973 328.521 42.4573 327.284 40.2843C326.164 38.2378 324.44 36.4685 322.392 35.3118C320.223 34.0581 317.702 33.5139 315.265 33.5177C312.796 33.502 310.258 34.0878 308.075 35.3351L308.086 35.329C305.961 36.4783 304.153 38.2607 302.952 40.3464L302.945 40.3572C302.438 41.2515 302.034 42.2059 301.742 43.1884C301.303 44.6623 301.118 46.1925 301.126 47.7C301.129 50.1506 301.679 52.689 302.96 54.8582C304.11 56.849 305.838 58.542 307.864 59.6135C309.96 60.7295 312.35 61.2279 314.665 61.1555C315.332 61.1378 316.002 61.0617 316.659 60.9135C316.702 60.9038 316.745 60.8938 316.788 60.8834C317.413 60.7386 318.042 60.5536 318.654 60.3028C318.909 60.1975 319.163 60.0869 319.416 59.9688L319.468 59.9429C319.693 59.8042 319.916 59.6585 320.134 59.5027L319.421 58.9064C319.053 59.8369 318.686 60.7681 318.321 61.7ZM319.009 62L318.321 61.7L318.228 61.9387L318.4 62.1152L318.93 61.5848L319.009 62ZM320.587 45.4075C321.239 45.2692 321.891 45.1308 322.543 44.9925C322.422 44.4199 322.248 43.8492 322.009 43.2973C321.775 42.7543 321.476 42.2304 321.115 41.75L321.131 41.772C320.482 40.8444 319.562 40.0802 318.549 39.599L318.575 39.6122C317.457 39.0285 316.203 38.7972 315.015 38.8C313.827 38.7972 312.573 39.0285 311.455 39.6122L311.481 39.599C310.459 40.0853 309.54 40.8421 308.865 41.75L308.849 41.772C308.153 42.7519 307.722 43.8755 307.487 44.9925L307.231 46.2H308.465C312.305 46.2 316.144 46.2 319.984 46.2C320.511 46.2 321.038 46.2 321.565 46.2C321.565 45.5333 321.565 44.8667 321.565 44.2C321.038 44.2 320.511 44.2 319.984 44.2C316.144 44.2 312.305 44.2 308.465 44.2L309.443 45.4075C309.636 44.4959 309.973 43.6437 310.481 42.928L310.465 42.95C310.962 42.2846 311.6 41.7597 312.349 41.401L312.375 41.3878C313.159 40.9794 314.067 40.7986 315.015 40.8C315.963 40.7986 316.871 40.9794 317.655 41.3878L317.681 41.401C318.417 41.7534 319.034 42.2688 319.499 42.928L319.515 42.95C319.777 43.2994 319.997 43.6825 320.174 44.0916C320.354 44.5071 320.49 44.9492 320.587 45.4075ZM322.543 44.9925L320.587 45.4075L321.565 44.2V46.2H322.799L322.543 44.9925Z" fill="#DDA0DD"/>
</svg>
