<svg width="350" height="80" viewBox="0 0 350 80" fill="none" xmlns="http://www.w3.org/2000/svg">
<path d="M25.8404 59.5C26.0404 57.2667 26.1404 54.6 26.1404 51.5V30.45C25.7071 30.45 24.9904 30.55 23.9904 30.75C22.9904 30.95 22.1071 31.15 21.3404 31.35L21.1404 31.05L22.2904 25H41.5904L40.0904 22.25L40.2904 22H46.6904L50.2404 35.05L46.1904 36.45L45.9404 36.05C45.0404 34.5833 44.0571 33.45 42.9904 32.65C41.9571 31.8167 40.7404 31.25 39.3404 30.95C37.9404 30.6167 36.2071 30.45 34.1404 30.45H33.3904V39.75H37.6904C37.7571 39.75 37.7904 39.7167 37.7904 39.65V37.3H42.7404L41.8404 48.7H37.7904V45.9C37.7904 45.8333 37.7571 45.8 37.6904 45.8H33.3904V54.55C34.0571 54.55 35.2571 54.45 36.9904 54.25C38.7238 54.0167 39.9238 53.8167 40.5904 53.65L40.7904 53.95L39.6404 60H25.8404V59.5ZM55.6975 59.5C55.8641 56.8333 55.9475 54.1667 55.9475 51.5V30.05C55.3808 30.05 54.2141 30.2667 52.4475 30.7L51.7475 30.85L51.5975 30.55L52.5975 25H57.1475C58.0141 25 58.9808 24.9667 60.0475 24.9C61.1475 24.8333 61.9808 24.75 62.5475 24.65L62.6475 24.95C62.6141 25.8833 62.5641 27.2 62.4975 28.9C62.4308 30.8667 62.3975 32.4 62.3975 33.5V54.55C62.7641 54.55 63.4141 54.45 64.3475 54.25C65.3141 54.0167 66.1641 53.8167 66.8975 53.65L67.0975 53.95L65.9975 60H55.6975V59.5ZM77.8467 60.55C75.18 60.55 73.1133 59.9167 71.6467 58.65C70.2133 57.35 69.4967 55.65 69.4967 53.55C69.4967 51.6833 70.03 50.1833 71.0967 49.05C72.1633 47.9167 73.5467 47.1 75.2467 46.6C76.98 46.0667 79.0967 45.7 81.5967 45.5C82.8967 45.4 83.9467 45.2667 84.7467 45.1C85.5467 44.9333 86.18 44.6833 86.6467 44.35C87.1133 44.0167 87.3467 43.5667 87.3467 43C87.3467 41.9667 86.9467 41.1667 86.1467 40.6C85.3467 40 84.2633 39.7 82.8967 39.7C81.8633 39.7 80.9133 39.9 80.0467 40.3C79.18 40.6667 78.4133 41.2167 77.7467 41.95C77.1133 42.65 76.6133 43.4667 76.2467 44.4L76.1467 44.6L71.3967 43.75L74.1967 32.95H79.9467L80.1967 33.2L79.1967 35.55C79.6633 35.3167 80.08 35.15 80.4467 35.05C80.9467 34.8833 81.48 34.75 82.0467 34.65C82.6467 34.55 83.3133 34.5 84.0467 34.5C86.8133 34.5 89.0133 35.3833 90.6467 37.15C92.28 38.9167 93.0967 41.3167 93.0967 44.35V54.95C93.53 54.95 94.6967 54.7333 96.5967 54.3C96.73 54.2667 96.8467 54.25 96.9467 54.25C97.0467 54.2167 97.1467 54.1833 97.2467 54.15L97.4467 54.45L96.4467 60H87.2467V59.5C87.28 59.2333 87.2967 58.95 87.2967 58.65C87.33 58.3167 87.3467 57.9833 87.3467 57.65C87.3467 57.45 87.3467 57.2667 87.3467 57.1C87.38 56.9 87.3967 56.7167 87.3967 56.55C86.3967 57.7833 85.0467 58.7667 83.3467 59.5C81.6467 60.2 79.8133 60.55 77.8467 60.55ZM79.6467 55.3C80.98 55.3 82.23 55 83.3967 54.4C84.5967 53.7667 85.5467 52.95 86.2467 51.95C86.9467 50.9167 87.2967 49.8167 87.2967 48.65V48.05C86.73 48.4167 85.9633 48.7333 84.9967 49C84.0633 49.2333 83.0967 49.4 82.0967 49.5C80.1633 49.6333 78.68 49.9333 77.6467 50.4C76.6133 50.8667 76.0967 51.65 76.0967 52.75C76.0967 53.5833 76.4133 54.2167 77.0467 54.65C77.68 55.0833 78.5467 55.3 79.6467 55.3ZM126.067 35.45C125.7 36.25 125.334 37.0333 124.967 37.8C124.6 38.5333 124.234 39.2833 123.867 40.05C123.134 41.55 122.267 43.4167 121.267 45.65L114.967 60H107.567L101.917 47.1C100.917 44.8 99.6503 42.0833 98.117 38.95C97.9503 38.65 97.367 37.4833 96.367 35.45V35H108.817L109.667 40.1L109.467 40.5C109 40.4 108.384 40.3 107.617 40.2C106.884 40.1 106.334 40.05 105.967 40.05L111.767 54.9L115.267 46.15C115.7 45.0833 116.184 43.7 116.717 42C116.817 41.6667 116.917 41.35 117.017 41.05C117.15 40.7167 117.267 40.3833 117.367 40.05C117 40.05 116.45 40.1 115.717 40.2C115.017 40.3 114.417 40.4 113.917 40.5L113.667 40.2L114.567 35H126.067V35.45ZM131.536 59.5C131.702 56.8333 131.786 54.1667 131.786 51.5V40.05C131.219 40.05 130.052 40.2667 128.286 40.7L127.586 40.85L127.436 40.55L128.436 35H132.986C133.852 35 134.819 34.9667 135.886 34.9C136.986 34.8333 137.819 34.75 138.386 34.65L138.486 34.95C138.319 37.35 138.236 40.2 138.236 43.5V54.95C138.602 54.95 139.702 54.75 141.536 54.35L142.386 54.15L142.536 54.45L141.536 60H131.536V59.5ZM138.836 22.75L134.336 32.15H133.836L129.336 22.75H138.836ZM161.585 61.85L162.785 59.1C162.585 59.2333 162.368 59.3667 162.135 59.5C161.902 59.6 161.652 59.7 161.385 59.8C160.852 60 160.252 60.1667 159.585 60.3C158.952 60.4333 158.285 60.5 157.585 60.5C155.252 60.5 153.118 59.9667 151.185 58.9C149.285 57.8333 147.785 56.3333 146.685 54.4C145.585 52.4667 145.035 50.2333 145.035 47.7C145.035 45.1333 145.602 42.85 146.735 40.85C147.902 38.85 149.485 37.3 151.485 36.2C153.485 35.0667 155.718 34.5 158.185 34.5C160.685 34.5 162.902 35.05 164.835 36.15C166.768 37.25 168.285 38.7833 169.385 40.75C170.485 42.6833 171.035 44.9 171.035 47.4C171.035 47.7667 171.018 48.1333 170.985 48.5C170.985 48.8667 170.952 49.2167 170.885 49.55H151.335C151.535 50.6833 151.935 51.6833 152.535 52.55C153.135 53.4167 153.918 54.1 154.885 54.6C155.852 55.0667 156.952 55.3 158.185 55.3C159.252 55.3 160.235 55.1167 161.135 54.75C162.035 54.35 162.785 53.85 163.385 53.25C164.018 52.65 164.485 52.0167 164.785 51.35L164.885 51.15L170.285 52.5L167.585 62.1H161.835L161.585 61.85ZM164.485 45.2C164.252 44.1 163.835 43.15 163.235 42.35C162.668 41.55 161.935 40.9333 161.035 40.5C160.135 40.0333 159.102 39.8 157.935 39.8C156.768 39.8 155.735 40.0333 154.835 40.5C153.935 40.9333 153.185 41.55 152.585 42.35C152.018 43.15 151.618 44.1 151.385 45.2H164.485ZM204.729 60.75C203.496 60.75 202.313 60.6167 201.179 60.35C200.046 60.1167 199.013 59.8 198.079 59.4C197.713 59.2333 197.363 59.0667 197.029 58.9C196.696 58.7333 196.396 58.5667 196.129 58.4L197.679 62L197.379 62.35H191.029L187.179 47.65L192.279 45.95L192.779 47.2C193.413 48.7 194.363 50.05 195.629 51.25C196.929 52.4167 198.363 53.3167 199.929 53.95C201.529 54.5833 203.146 54.9 204.779 54.9C206.513 54.9 207.896 54.6 208.929 54C209.996 53.3667 210.529 52.45 210.529 51.25C210.529 50.2833 210.179 49.5 209.479 48.9C208.779 48.3 207.863 47.8 206.729 47.4C205.629 46.9667 204.029 46.4833 201.929 45.95C201.796 45.8833 201.663 45.8333 201.529 45.8C201.396 45.7667 201.246 45.7333 201.079 45.7C198.679 45.0333 196.596 44.3167 194.829 43.55C193.096 42.7833 191.563 41.6333 190.229 40.1C188.896 38.5667 188.229 36.5833 188.229 34.15C188.229 31.95 188.796 30.1167 189.929 28.65C191.063 27.15 192.546 26.05 194.379 25.35C196.213 24.6167 198.196 24.25 200.329 24.25C200.996 24.25 201.629 24.3 202.229 24.4C202.863 24.4667 203.446 24.5667 203.979 24.7C204.546 24.8 205.079 24.9333 205.579 25.1C205.846 25.2 206.096 25.3 206.329 25.4C206.596 25.5 206.846 25.6 207.079 25.7L205.979 23.2L206.229 22.9H212.729L215.979 36.45L211.079 38.05L210.829 37.5C210.129 36 209.229 34.7167 208.129 33.65C207.063 32.55 205.879 31.7167 204.579 31.15C203.313 30.5833 202.046 30.3 200.779 30.3C199.313 30.3 198.113 30.6167 197.179 31.25C196.246 31.85 195.779 32.7333 195.779 33.9C195.779 34.8667 196.129 35.6667 196.829 36.3C197.529 36.9333 198.396 37.45 199.429 37.85C200.463 38.2167 201.896 38.65 203.729 39.15L204.529 39.35L205.029 39.5C207.796 40.2333 210.046 40.9667 211.779 41.7C213.513 42.4333 214.996 43.5333 216.229 45C217.496 46.4667 218.129 48.4167 218.129 50.85C218.129 53.0167 217.529 54.85 216.329 56.35C215.129 57.85 213.513 58.9667 211.479 59.7C209.479 60.4 207.229 60.75 204.729 60.75ZM235.865 61.8L236.865 59.2C236.732 59.3 236.582 59.4 236.415 59.5C236.248 59.6 236.082 59.6833 235.915 59.75C235.482 59.9833 235.015 60.1667 234.515 60.3C234.048 60.4333 233.498 60.5 232.865 60.5C230.532 60.5 228.698 59.8167 227.365 58.45C226.065 57.05 225.415 55.0667 225.415 52.5V40.1H223.565C223.232 40.1 222.682 40.1667 221.915 40.3C221.182 40.4333 220.515 40.5833 219.915 40.75L219.465 40.85L219.315 40.55L220.315 35L222.615 35.1C223.482 35.1667 224.198 35.0667 224.765 34.8C225.365 34.5333 225.815 34.1333 226.115 33.6C226.415 33.0667 226.565 32.4 226.565 31.6V29C227.532 29 228.465 28.9833 229.365 28.95C230.298 28.9167 231.132 28.8667 231.865 28.8V35H233.515C234.582 35 236.082 34.9333 238.015 34.8C239.982 34.6333 241.332 34.4833 242.065 34.35L242.265 34.65L241.265 40.1H231.865V44.75C231.865 45.8167 231.832 46.7833 231.765 47.65C231.732 48.4833 231.665 49.25 231.565 49.95C231.532 50.35 231.498 50.7167 231.465 51.05C231.465 51.35 231.465 51.65 231.465 51.95C231.465 52.9833 231.715 53.8 232.215 54.4C232.715 54.9667 233.398 55.25 234.265 55.25C234.865 55.25 235.448 55.0667 236.015 54.7C236.615 54.3 237.132 53.7833 237.565 53.15C238.032 52.5167 238.382 51.85 238.615 51.15L238.865 50.35L243.615 51.35L241.865 62H236.065L235.865 61.8ZM259.414 60.5C256.847 60.5 254.531 59.95 252.464 58.85C250.431 57.7167 248.831 56.1667 247.664 54.2C246.497 52.2 245.914 49.9667 245.914 47.5C245.914 45 246.497 42.7667 247.664 40.8C248.831 38.8333 250.431 37.3 252.464 36.2C254.497 35.0667 256.814 34.5 259.414 34.5C262.047 34.5 264.381 35.0667 266.414 36.2C268.447 37.3 270.031 38.8333 271.164 40.8C272.331 42.7667 272.914 45 272.914 47.5C272.914 49.9667 272.331 52.1833 271.164 54.15C269.997 56.1167 268.381 57.6667 266.314 58.8C264.281 59.9333 261.981 60.5 259.414 60.5ZM259.414 54.9C260.714 54.9 261.881 54.5833 262.914 53.95C263.981 53.3167 264.797 52.4333 265.364 51.3C265.964 50.1667 266.264 48.9 266.264 47.5C266.264 46.1 265.964 44.8333 265.364 43.7C264.797 42.5667 263.981 41.6833 262.914 41.05C261.881 40.4167 260.714 40.1 259.414 40.1C258.114 40.1 256.947 40.4167 255.914 41.05C254.881 41.6833 254.064 42.5667 253.464 43.7C252.864 44.8333 252.564 46.1 252.564 47.5C252.564 48.9 252.864 50.1667 253.464 51.3C254.064 52.4333 254.881 53.3167 255.914 53.95C256.947 54.5833 258.114 54.9 259.414 54.9ZM300.734 43.55L295.384 45.4C294.884 44.2333 294.367 43.3 293.834 42.6C293.3 41.8667 292.717 41.3333 292.084 41C291.45 40.6667 290.75 40.5 289.984 40.5C289.217 40.5 288.55 40.7 287.984 41.1C287.417 41.4667 286.984 42 286.684 42.7C286.384 43.4 286.234 44.2167 286.234 45.15V54.95C286.767 54.95 287.667 54.8667 288.934 54.7C290.2 54.5 291.234 54.3167 292.034 54.15L292.184 54.45L291.184 60H279.534V59.5C279.7 56.8333 279.784 54.1667 279.784 51.5V40.05C279.217 40.05 278.05 40.2667 276.284 40.7L275.584 40.85L275.434 40.55L276.434 35H280.134C280.934 35 281.884 34.9667 282.984 34.9C284.117 34.8333 284.95 34.75 285.484 34.65L285.584 34.95L285.534 35.75C285.5 36.0167 285.484 36.2833 285.484 36.55C285.484 36.8167 285.467 37.0833 285.434 37.35C285.9 36.5167 286.634 35.85 287.634 35.35C288.634 34.8167 289.584 34.55 290.484 34.55C290.817 34.55 291.134 34.5833 291.434 34.65C291.734 34.7167 292.017 34.8167 292.284 34.95C292.384 35.0167 292.484 35.0833 292.584 35.15C292.684 35.2167 292.784 35.3 292.884 35.4L291.984 33.2L292.234 32.95H298.034L300.734 43.55ZM318.665 61.85L319.865 59.1C319.665 59.2333 319.448 59.3667 319.215 59.5C318.982 59.6 318.732 59.7 318.465 59.8C317.932 60 317.332 60.1667 316.665 60.3C316.032 60.4333 315.365 60.5 314.665 60.5C312.332 60.5 310.198 59.9667 308.265 58.9C306.365 57.8333 304.865 56.3333 303.765 54.4C302.665 52.4667 302.115 50.2333 302.115 47.7C302.115 45.1333 302.682 42.85 303.815 40.85C304.982 38.85 306.565 37.3 308.565 36.2C310.565 35.0667 312.798 34.5 315.265 34.5C317.765 34.5 319.982 35.05 321.915 36.15C323.848 37.25 325.365 38.7833 326.465 40.75C327.565 42.6833 328.115 44.9 328.115 47.4C328.115 47.7667 328.098 48.1333 328.065 48.5C328.065 48.8667 328.032 49.2167 327.965 49.55H308.415C308.615 50.6833 309.015 51.6833 309.615 52.55C310.215 53.4167 310.998 54.1 311.965 54.6C312.932 55.0667 314.032 55.3 315.265 55.3C316.332 55.3 317.315 55.1167 318.215 54.75C319.115 54.35 319.865 53.85 320.465 53.25C321.098 52.65 321.565 52.0167 321.865 51.35L321.965 51.15L327.365 52.5L324.665 62.1H318.915L318.665 61.85ZM321.565 45.2C321.332 44.1 320.915 43.15 320.315 42.35C319.748 41.55 319.015 40.9333 318.115 40.5C317.215 40.0333 316.182 39.8 315.015 39.8C313.848 39.8 312.815 40.0333 311.915 40.5C311.015 40.9333 310.265 41.55 309.665 42.35C309.098 43.15 308.698 44.1 308.465 45.2H321.565Z" fill="#F5F5F5"/>
</svg>
