<svg width="500" height="500" viewBox="0 0 500 500" fill="none" xmlns="http://www.w3.org/2000/svg">
<circle cx="250" cy="250" r="200" fill="black"/>
<path d="M125 195C125 156.34 156.34 125 195 125H305C343.66 125 375 156.34 375 195V305C375 343.66 343.66 375 305 375H195C156.34 375 125 343.66 125 305V195Z" fill="#F5F5F5"/>
<path d="M150 200C150 172.386 172.386 150 200 150H300C327.614 150 350 172.386 350 200V300C350 327.614 327.614 350 300 350H200C172.386 350 150 327.614 150 300V200Z" fill="black"/>
<circle cx="249.5" cy="250.5" r="65.5" fill="#F5F5F5"/>
<circle cx="314.5" cy="184.5" r="13.5" fill="#F5F5F5"/>
<circle cx="249.5" cy="250.5" r="43.5" fill="black"/>
</svg>
